<svg width="36" height="38" viewBox="0 0 36 38" fill="none" xmlns="http://www.w3.org/2000/svg">
<path d="M4.07011 21.7523C4.32676 21.437 4.51924 21.0508 4.64756 20.5937C4.77588 20.1366 4.84005 19.577 4.84005 18.915C4.84005 17.9693 4.51924 16.7713 3.87763 15.3212C3.23601 13.871 2.9152 12.7834 2.9152 12.0583C2.9152 11.68 2.95531 11.286 3.03551 10.8761C3.11571 10.4663 3.33225 9.99343 3.68514 9.4575H6.5724C6.21952 9.99343 6.00297 10.4663 5.92277 10.8761C5.84257 11.286 5.80247 11.68 5.80247 12.0583C5.80247 12.7834 6.12327 13.871 6.76489 15.3212C7.4065 16.7713 7.72731 17.9693 7.72731 18.915C7.72731 19.577 7.66315 20.1208 7.53482 20.5464C7.4065 20.972 7.21402 21.374 6.95737 21.7523H4.07011ZM16.5816 21.7523C16.8382 21.437 17.0307 21.0508 17.159 20.5937C17.2874 20.1366 17.3515 19.577 17.3515 18.915C17.3515 17.9693 17.0307 16.7713 16.3891 15.3212C15.7475 13.871 15.4267 12.7834 15.4267 12.0583C15.4267 11.68 15.4668 11.286 15.547 10.8761C15.6272 10.4663 15.8437 9.99343 16.1966 9.4575H19.0839C18.731 9.99343 18.5144 10.4663 18.4342 10.8761C18.354 11.286 18.3139 11.68 18.3139 12.0583C18.3139 12.7834 18.6347 13.871 19.2764 15.3212C19.918 16.7713 20.2388 17.9693 20.2388 18.915C20.2388 19.577 20.1746 20.1208 20.0463 20.5464C19.918 20.972 19.7255 21.374 19.4688 21.7523H16.5816ZM10.3258 21.7523C10.5825 21.437 10.775 21.0508 10.9033 20.5937C11.0316 20.1366 11.0958 19.577 11.0958 18.915C11.0958 17.9693 10.775 16.7713 10.1334 15.3212C9.49175 13.871 9.17094 12.7834 9.17094 12.0583C9.17094 11.68 9.21104 11.286 9.29124 10.8761C9.37145 10.4663 9.58799 9.99343 9.94088 9.4575H12.8281C12.4753 9.99343 12.2587 10.4663 12.1785 10.8761C12.0983 11.286 12.0582 11.68 12.0582 12.0583C12.0582 12.7834 12.379 13.871 13.0206 15.3212C13.6622 16.7713 13.983 17.9693 13.983 18.915C13.983 19.577 13.9189 20.1208 13.7906 20.5464C13.6622 20.972 13.4698 21.374 13.2131 21.7523H10.3258ZM13.0206 37.83C9.78047 37.83 6.92529 36.766 4.45508 34.6381C1.98486 32.5102 0.509152 29.8699 0.0279413 26.7174C-0.0683009 26.15 0.0840825 25.6535 0.485091 25.2279C0.8861 24.8023 1.37533 24.5895 1.95278 24.5895H22.2117L24.3291 5.01248C24.4895 3.59385 25.107 2.40378 26.1817 1.44227C27.2564 0.480756 28.5477 0 30.0555 0C31.6595 0 33.0229 0.551687 34.1458 1.65506C35.2686 2.75844 35.83 4.09825 35.83 5.6745C35.83 6.11585 35.7899 6.69906 35.7097 7.42414L35.5894 8.51175L31.7878 8.03888L31.8841 7.06948C31.9482 6.42322 31.9803 5.95823 31.9803 5.6745C31.9803 5.13858 31.7959 4.68934 31.4269 4.32681C31.058 3.96427 30.6008 3.783 30.0555 3.783C29.5422 3.783 29.1091 3.94851 28.7562 4.27952C28.4033 4.61053 28.1948 5.01248 28.1306 5.48535L25.9171 26.0554C25.5642 29.3971 24.1687 32.1949 21.7305 34.4489C19.2924 36.703 16.3891 37.83 13.0206 37.83ZM13.0206 34.047C14.9134 34.047 16.6137 33.5268 18.1215 32.4865C19.6292 31.4462 20.72 30.0749 21.3937 28.3725H4.5032C5.24105 30.0749 6.3719 31.4462 7.89573 32.4865C9.41957 33.5268 11.1279 34.047 13.0206 34.047Z" fill="white"/>
</svg>
