<svg width="369" height="369" viewBox="0 0 369 369" fill="none" xmlns="http://www.w3.org/2000/svg">
<path d="M130.988 234.152H111.557V253.953H130.988V234.152Z" fill="#F5F5F5"/>
<path d="M154.375 234.152H134.943V253.953H154.375V234.152Z" fill="#F5F5F5"/>
<path d="M177.769 234.152H158.338V253.953H177.769V234.152Z" fill="#F5F5F5"/>
<path d="M201.156 234.152H181.725V253.953H201.156V234.152Z" fill="#F5F5F5"/>
<path d="M224.543 234.152H205.111V253.953H224.543V234.152Z" fill="#F5F5F5"/>
<path d="M247.939 234.152H228.508V253.953H247.939V234.152Z" fill="#F5F5F5"/>
<path d="M271.324 234.152H251.893V253.953H271.324V234.152Z" fill="#F5F5F5"/>
<path d="M295.717 234.152H276.285V253.953H295.717V234.152Z" fill="#F5F5F5"/>
<path d="M130.988 210.189H111.557V229.99H130.988V210.189Z" fill="#F5F5F5"/>
<path d="M154.375 210.189H134.943V229.99H154.375V210.189Z" fill="#F5F5F5"/>
<path d="M177.769 210.189H158.338V229.99H177.769V210.189Z" fill="#F5F5F5"/>
<path d="M201.156 210.189H181.725V229.99H201.156V210.189Z" fill="#F5F5F5"/>
<path d="M224.543 210.189H205.111V229.99H224.543V210.189Z" fill="#F5F5F5"/>
<path d="M247.939 210.189H228.508V229.99H247.939V210.189Z" fill="#F5F5F5"/>
<path d="M271.324 210.189H251.893V229.99H271.324V210.189Z" fill="#F5F5F5"/>
<path d="M326.551 329.052H341.311V340.661C341.311 342.381 340.627 344.031 339.411 345.248C338.194 346.464 336.544 347.148 334.824 347.148H333.038C331.317 347.148 329.667 346.464 328.451 345.248C327.234 344.031 326.551 342.381 326.551 340.661V329.052Z" fill="#F5F5F5"/>
<path d="M335.053 329.052H349.813V340.661C349.813 342.381 349.129 344.031 347.913 345.248C346.696 346.464 345.046 347.148 343.326 347.148H341.54C339.819 347.148 338.169 346.464 336.953 345.248C335.736 344.031 335.053 342.381 335.053 340.661V329.052Z" fill="#E0E0E0"/>
<path d="M342.565 343.76C343.166 342.724 343.546 341.575 343.681 340.385C343.816 339.194 343.702 337.989 343.347 336.845C343.243 336.535 343.081 336.188 342.764 336.107C342.446 336.026 342.026 336.483 341.849 336.897C341.432 338.019 341.281 339.222 341.41 340.412C341.538 341.602 341.941 342.745 342.587 343.753" fill="#EBEBEB"/>
<path d="M340.263 343.243C340.421 342.438 340.41 341.608 340.233 340.807C340.055 340.006 339.713 339.25 339.23 338.587C339.097 338.41 338.912 338.218 338.691 338.247C338.469 338.277 338.285 338.653 338.277 338.985C338.254 339.805 338.422 340.62 338.768 341.364C339.114 342.108 339.628 342.762 340.27 343.273" fill="#EBEBEB"/>
<path d="M344.971 343.273C345.552 342.696 346.006 342.004 346.304 341.241C346.603 340.479 346.739 339.663 346.706 338.845C346.717 338.733 346.699 338.619 346.654 338.516C346.609 338.413 346.538 338.323 346.447 338.255C346.182 338.122 345.887 338.373 345.709 338.616C345.232 339.284 344.918 340.054 344.789 340.865C344.661 341.676 344.724 342.505 344.971 343.288" fill="#EBEBEB"/>
<path d="M289.82 299.694C289.82 299.694 291.828 291.134 305.673 291.075C318.993 291.015 319.65 299.694 319.65 299.694H289.82Z" fill="#EBEBEB"/>
<path d="M291.938 299.694C291.82 300.314 291.938 310.233 291.938 310.233C291.938 310.233 280.064 313.576 279.688 323.598V335.628C279.688 335.628 282.042 347.48 299.739 347.354C317.436 347.229 331.362 347.354 332.004 328.904C332.609 311.68 317.311 309.842 317.311 309.842L316.934 299.68L291.938 299.694Z" fill="#EBEBEB"/>
<path d="M282.727 318.815C282.727 318.815 273.303 320.365 271.613 317.553C269.923 314.741 266.491 300.955 263 300.815C259.51 300.675 257.406 300.815 257.406 300.815V305.317C257.406 305.317 262.188 304.328 262.572 306.439C262.956 308.55 266.262 323.745 270.026 328.239C273.79 332.734 281.177 336.689 281.177 336.689L282.727 318.815Z" fill="#EBEBEB"/>
<path d="M336.963 320.579C336.874 320.638 336.505 320.432 336.535 319.738C336.601 319.241 336.843 318.783 337.216 318.448C337.59 318.112 338.07 317.921 338.572 317.908C340.048 317.863 341.361 319.133 341.767 320.779C341.997 321.718 341.982 322.7 341.723 323.631C341.465 324.563 340.972 325.413 340.291 326.099C339.404 326.957 338.271 327.514 337.05 327.694C335.83 327.875 334.584 327.668 333.487 327.103C332.244 326.448 331.264 325.384 330.712 324.092C330.17 322.825 329.959 321.441 330.1 320.07C330.351 317.221 331.945 314.904 333.509 312.941C335.074 310.978 336.756 309.251 337.635 307.34C338.056 306.46 338.268 305.495 338.254 304.52C338.203 303.122 337.743 301.769 336.931 300.629C336.119 299.489 334.991 298.613 333.686 298.107C332.046 297.573 330.273 297.615 328.66 298.225C327.199 298.742 325.918 299.67 324.97 300.897C324.107 302.063 323.362 303.664 322.018 304.69C320.675 305.716 319.022 306.055 317.841 305.325C317.442 305.093 317.116 304.755 316.897 304.348C316.678 303.942 316.576 303.483 316.602 303.022C316.69 302.38 317.022 302.203 317.111 302.284C317.199 302.365 317.214 302.631 317.376 302.985C317.485 303.229 317.646 303.447 317.848 303.623C318.049 303.799 318.286 303.929 318.543 304.004C318.941 304.055 319.346 304 319.715 303.843C320.085 303.686 320.406 303.433 320.646 303.111C321.384 302.373 321.819 301.081 322.749 299.421C323.866 297.591 325.517 296.149 327.48 295.288C329.773 294.243 332.363 294.05 334.786 294.742C336.135 295.164 337.384 295.859 338.454 296.783C339.524 297.707 340.393 298.841 341.007 300.115C341.678 301.459 342.056 302.93 342.114 304.432C342.153 305.996 341.824 307.548 341.155 308.963C339.856 311.716 337.9 313.598 336.446 315.354C334.993 317.111 333.841 318.83 333.657 320.461C333.472 322.092 334.004 323.708 335.037 324.314C335.561 324.627 336.167 324.777 336.777 324.744C337.387 324.711 337.973 324.497 338.461 324.129C338.89 323.773 339.226 323.319 339.441 322.805C339.655 322.291 339.742 321.732 339.694 321.177C339.693 320.8 339.585 320.432 339.38 320.115C339.176 319.798 338.885 319.547 338.542 319.391C338.309 319.356 338.07 319.388 337.854 319.481C337.637 319.575 337.451 319.728 337.317 319.922C337.074 320.232 337.088 320.52 336.963 320.579Z" fill="#EBEBEB"/>
<path d="M304.844 291.273C303.841 290.594 302.763 289.694 302.756 288.484C302.772 288.19 302.848 287.904 302.98 287.641C303.112 287.379 303.296 287.146 303.522 286.959C303.748 286.771 304.01 286.632 304.292 286.55C304.575 286.468 304.87 286.446 305.162 286.484C305.741 286.612 306.25 286.955 306.586 287.444C306.921 287.933 307.059 288.532 306.97 289.118C306.845 289.701 306.523 290.222 306.057 290.593C305.592 290.965 305.012 291.163 304.416 291.155" fill="#E0E0E0"/>
<path d="M281.614 320.498C281.761 320.38 284.012 323.885 284.78 328.86C285.013 330.037 285.033 331.247 284.839 332.431C284.669 333.444 284.159 334.368 283.392 335.051C282.886 335.516 282.245 335.808 281.562 335.885C281.083 335.885 280.824 335.812 280.824 335.767C281.676 335.637 282.461 335.228 283.057 334.605C283.652 333.981 284.025 333.178 284.116 332.321C284.248 331.212 284.205 330.089 283.99 328.992C283.282 324.166 281.4 320.601 281.614 320.498Z" fill="#E0E0E0"/>
<path d="M316.662 310.697C316.662 310.911 311.26 311.015 304.611 310.926C297.961 310.838 292.559 310.601 292.566 310.395C292.574 310.188 297.961 310.077 304.618 310.159C311.275 310.24 316.662 310.461 316.662 310.697Z" fill="#E0E0E0"/>
<path d="M320.365 299.443C320.365 299.657 313.642 299.827 305.354 299.827C297.067 299.827 290.336 299.657 290.336 299.443C290.336 299.229 297.059 299.06 305.354 299.06C313.649 299.06 320.365 299.229 320.365 299.443Z" fill="#E0E0E0"/>
<path d="M292.026 345.465C291.799 345.088 291.63 344.68 291.524 344.254C291.148 343.129 290.835 341.983 290.586 340.823C288.914 333.102 289.344 325.073 291.834 317.576C292.2 316.446 292.634 315.34 293.133 314.262C293.281 313.851 293.493 313.465 293.76 313.118C293.878 313.17 293.177 314.882 292.35 317.738C290.189 325.204 289.767 333.065 291.118 340.719C291.634 343.649 292.151 345.428 292.026 345.465Z" fill="#E0E0E0"/>
<path d="M300.514 345.228C300.3 345.228 299.931 338.018 299.687 329.118C299.444 320.217 299.414 312.985 299.628 312.978C299.842 312.97 300.211 320.188 300.455 329.095C300.698 338.003 300.728 345.221 300.514 345.228Z" fill="#E0E0E0"/>
<path d="M308.912 344.298C308.801 344.298 308.653 342.542 308.447 339.686C308.24 336.83 307.952 332.896 307.576 328.549C307.199 324.202 306.794 320.276 306.498 317.428C306.203 314.579 306.048 312.822 306.159 312.808C306.27 312.793 306.609 314.527 307.044 317.361C307.48 320.195 307.96 324.129 308.343 328.483C308.727 332.837 308.919 336.793 308.993 339.656C309.067 342.52 309.015 344.298 308.912 344.298Z" fill="#E0E0E0"/>
<path d="M318.941 343.17C318.83 343.17 318.801 341.436 318.683 338.646C318.565 335.856 318.336 332.004 317.834 327.783C317.332 323.561 316.646 319.761 316.092 317.023C315.539 314.285 315.163 312.595 315.273 312.595C315.384 312.595 315.937 314.211 316.624 316.934C318.38 324.045 319.255 331.344 319.229 338.668C319.207 341.458 319.037 343.17 318.941 343.17Z" fill="#E0E0E0"/>
<path d="M326.077 340.476C325.952 340.424 326.653 338.911 327.199 336.328C327.929 332.966 327.894 329.482 327.095 326.135C326.297 322.788 324.756 319.664 322.586 316.993C320.926 314.934 319.634 313.908 319.708 313.805C319.782 313.701 320.092 313.982 320.69 314.439C321.522 315.109 322.295 315.85 323 316.653C325.357 319.311 327.022 322.509 327.848 325.964C328.673 329.42 328.632 333.025 327.73 336.461C327.465 337.493 327.107 338.498 326.66 339.465C326.343 340.144 326.121 340.498 326.077 340.476Z" fill="#E0E0E0"/>
<path d="M295.103 301.06C295.317 301.06 295.486 302.831 295.486 305.015C295.486 307.2 295.317 308.971 295.103 308.971C294.888 308.971 294.719 307.2 294.719 305.015C294.719 302.831 294.888 301.06 295.103 301.06Z" fill="#E0E0E0"/>
<path d="M299.842 301.428C300.049 301.428 300.226 303.118 300.226 305.199C300.226 307.28 300.049 308.97 299.842 308.97C299.636 308.97 299.451 307.28 299.451 305.199C299.451 303.118 299.628 301.428 299.842 301.428Z" fill="#E0E0E0"/>
<path d="M305.761 300.985C305.967 300.985 306.144 302.705 306.144 304.83C306.144 306.956 305.967 308.675 305.761 308.675C305.554 308.675 305.377 306.956 305.377 304.83C305.377 302.705 305.532 300.985 305.761 300.985Z" fill="#E0E0E0"/>
<path d="M313.007 302.019C313.221 302.019 313.391 303.495 313.391 305.31C313.391 307.126 313.221 308.602 313.007 308.602C312.793 308.602 312.623 307.126 312.623 305.31C312.623 303.495 312.8 302.019 313.007 302.019Z" fill="#E0E0E0"/>
<path d="M305.007 290.979C305.051 291.215 301.922 291.554 298.845 293.687C295.767 295.82 294.269 298.565 294.07 298.432C293.988 298.395 294.232 297.643 294.926 296.573C296.796 293.776 299.676 291.814 302.963 291.097C304.21 290.838 304.999 290.89 305.007 290.979Z" fill="#E0E0E0"/>
<path d="M300.979 298.536C300.787 298.573 300.544 296.425 301.754 294.159C302.964 291.894 304.854 290.868 304.935 291.052C305.016 291.237 303.518 292.44 302.44 294.521C301.363 296.602 301.208 298.55 300.979 298.536Z" fill="#E0E0E0"/>
<path d="M310.544 298.034C310.315 298.07 310.02 296.085 308.64 294.144C307.259 292.203 305.525 291.192 305.636 291.023C305.747 290.853 307.776 291.547 309.267 293.701C310.758 295.856 310.735 298.063 310.544 298.034Z" fill="#E0E0E0"/>
<path d="M315.767 298.232C315.568 298.358 314.365 295.28 311.162 293.266C307.959 291.251 304.689 291.384 304.719 291.148C304.719 291.059 305.501 290.875 306.8 290.978C308.501 291.133 310.139 291.696 311.577 292.618C313.014 293.54 314.208 294.795 315.058 296.277C315.693 297.413 315.863 298.203 315.767 298.232Z" fill="#E0E0E0"/>
<path d="M141.882 115.696C139.292 113.829 135.528 114.22 132.893 116.021C130.258 117.821 128.62 120.788 127.653 123.836C126.686 126.884 126.317 130.072 125.675 133.201C125.033 136.33 124.059 139.482 122.104 142.006C125.513 143.352 129.26 143.59 132.813 142.687C136.366 141.784 139.544 139.785 141.897 136.974C144.25 134.163 145.658 130.682 145.922 127.026C146.185 123.37 145.291 119.723 143.365 116.604" fill="#FDD835"/>
<path d="M132.309 135.541C132.257 135.489 133.091 134.722 134.279 133.327C135.815 131.521 137.13 129.539 138.198 127.423C139.247 125.309 140.044 123.08 140.575 120.781C140.973 119.009 141.084 117.88 141.15 117.888C141.187 118.152 141.187 118.42 141.15 118.685C141.095 119.408 140.996 120.128 140.855 120.84C140.4 123.192 139.625 125.472 138.552 127.615C137.48 129.762 136.114 131.749 134.493 133.519C134.009 134.054 133.494 134.562 132.951 135.039C132.757 135.23 132.541 135.398 132.309 135.541Z" fill="#455A64"/>
<path d="M123.822 119.106C131.298 120.338 139.482 118.648 145.158 113.622C142.885 109.689 133.844 104.516 129.335 103.925C124.826 103.335 120.25 104.287 115.925 105.689C111.601 107.091 107.431 108.944 103.069 110.228C102.582 109.962 116.088 117.829 123.822 119.106Z" fill="#FDD835"/>
<path d="M103.068 110.228C103.2 110.263 103.326 110.315 103.445 110.383L104.485 110.899L108.308 112.803C112.486 114.933 116.833 116.716 121.304 118.132C123.751 118.928 126.311 119.322 128.884 119.298C130.985 119.247 133.071 118.927 135.09 118.346C136.817 117.858 138.182 117.342 139.127 116.988L140.219 116.604C140.342 116.549 140.471 116.509 140.603 116.486C140.495 116.567 140.376 116.632 140.249 116.678L139.186 117.15C137.873 117.715 136.531 118.208 135.164 118.626C133.129 119.25 131.019 119.6 128.891 119.667C126.281 119.713 123.683 119.324 121.201 118.515C116.704 117.099 112.346 115.274 108.183 113.061C106.581 112.235 105.297 111.534 104.419 111.047L103.408 110.464C103.284 110.402 103.169 110.323 103.068 110.228Z" fill="#455A64"/>
<path d="M122.832 110.781C123.033 110.637 123.254 110.525 123.489 110.449C124.113 110.185 124.757 109.973 125.415 109.814C127.588 109.266 129.852 109.188 132.057 109.585C134.267 109.987 136.367 110.853 138.219 112.124C138.776 112.508 139.303 112.933 139.799 113.393C139.987 113.554 140.156 113.738 140.3 113.939C140.249 113.991 139.489 113.26 138.086 112.353C136.235 111.161 134.167 110.346 132 109.956C129.833 109.566 127.61 109.608 125.459 110.08C123.828 110.426 122.854 110.847 122.832 110.781Z" fill="#455A64"/>
<path d="M153.136 108.995C151.791 107.549 150.029 106.558 148.095 106.161C146.71 105.943 145.293 106.231 144.103 106.973C142.331 107.785 141.151 110.323 140.833 112.249C140.63 114.201 140.946 116.171 141.748 117.962C142.354 119.438 143.224 120.973 144.745 121.556C146.597 122.294 148.641 121.342 150.398 120.419C152.678 119.216 155.187 117.703 155.711 115.179C156.184 112.914 154.804 110.626 153.136 108.995Z" fill="#FDD835"/>
<path d="M146.124 121.814C145.875 121.831 145.625 121.801 145.386 121.725C144.74 121.578 144.125 121.315 143.571 120.95C142.669 120.318 141.905 119.509 141.324 118.573C140.743 117.637 140.358 116.593 140.191 115.504C139.874 113.315 140.356 111.086 141.549 109.224C141.914 108.671 142.356 108.174 142.862 107.748C143.042 107.586 143.247 107.454 143.468 107.356C142.829 107.959 142.264 108.635 141.785 109.371C140.705 111.203 140.278 113.347 140.575 115.452C140.902 117.555 142.035 119.447 143.733 120.729C144.473 121.206 145.279 121.571 146.124 121.814Z" fill="#455A64"/>
<path d="M148.721 110.323C148.721 110.39 148.086 110.323 147.09 110.53C145.8 110.749 144.582 111.282 143.545 112.081C142.508 112.88 141.683 113.921 141.142 115.113C140.714 116.02 140.596 116.648 140.529 116.633C140.528 116.069 140.652 115.512 140.891 115.002C141.391 113.726 142.228 112.611 143.314 111.775C144.4 110.939 145.692 110.414 147.053 110.257C147.607 110.158 148.177 110.181 148.721 110.323Z" fill="#455A64"/>
<path d="M150.789 118.301C150.281 118.408 149.755 118.408 149.247 118.301C148.009 118.101 146.826 117.645 145.774 116.963C144.722 116.281 143.824 115.387 143.136 114.338C142.825 113.924 142.606 113.449 142.494 112.943C142.805 113.342 143.096 113.755 143.365 114.183C144.809 116.131 146.904 117.495 149.269 118.028C149.78 118.092 150.288 118.184 150.789 118.301Z" fill="#455A64"/>
<path d="M166.049 74.2203C160.883 73.8292 155.717 75.7406 151.459 78.6483C147.201 81.556 143.614 85.4084 140.205 89.305C139.413 90.098 138.788 91.0415 138.367 92.0799C138.167 92.6028 138.119 93.1719 138.231 93.7208C138.342 94.2696 138.606 94.7755 138.994 95.1795C139.836 95.9175 141.422 95.6961 141.791 94.6408C140.581 96.0208 139.312 97.519 139.105 99.3418C138.898 101.165 140.293 103.283 142.116 103.032C143.312 102.884 144.168 101.858 144.928 100.929C151.57 92.8105 160.131 86.08 170.02 82.5154C179.909 78.9509 191.104 78.6926 200.802 82.7073C205.909 84.8254 210.625 88.0873 216.064 89.0246C217.06 89.1943 218.211 89.2386 218.949 88.5523C219.269 88.2058 219.483 87.7748 219.566 87.3104C219.648 86.846 219.595 86.3678 219.414 85.9324C219.038 85.0681 218.499 84.284 217.827 83.6224C219.259 84.5154 221.237 85.3641 222.462 84.2054C223.421 83.2977 223.2 81.6151 222.307 80.604C221.355 79.6805 220.225 78.9599 218.986 78.4859C217.798 77.9029 216.58 77.1575 216.034 75.9472C217.082 76.7885 218.248 77.6741 219.591 77.6741C220.934 77.6741 222.292 76.1981 221.672 75.0247C221.365 74.5534 220.93 74.1795 220.418 73.9472C208.876 67.4777 195.809 64.2256 182.581 64.5304C179.009 64.6263 175.341 65.0027 172.167 66.6337C168.994 68.2646 166.374 71.3938 166.263 74.9657" fill="#263238"/>
<path d="M152.243 110.98L155.778 181.983C156.811 194.145 168.375 210.817 187.512 208.3C203.976 204.868 206.618 189.99 205.637 178.64C205.172 173.253 203.069 168.123 203.061 167.57C203.061 167.57 218.087 165.179 217.865 147.039C217.762 138.271 216.072 120.235 214.36 103.932C213.474 95.4838 209.438 87.679 203.057 82.0718C196.676 76.4646 188.417 73.4664 179.925 73.6742L178.176 73.7185C159.357 75.3125 150.161 92.1906 152.243 110.98Z" fill="#FFD5BE"/>
<path d="M203.083 167.57C203.083 167.57 186.677 171.068 174.301 163.71C174.301 163.71 180.699 178.684 204.684 173.097L203.083 167.57Z" fill="#FFB194"/>
<path d="M211.576 111.962C211.259 112.28 208.816 112.287 205.672 113.438C202.528 114.59 200.396 116.147 200.004 116.088C199.813 116.088 200.093 115.601 201.008 114.892C202.375 113.89 203.885 113.099 205.488 112.545C207.015 111.976 208.626 111.662 210.255 111.615C211.311 111.608 211.731 111.815 211.576 111.962Z" fill="#263238"/>
<path d="M184.937 117.415C184.464 117.519 182.265 115.998 178.737 115.105C175.21 114.212 172.332 114.404 172.014 114.102C171.859 113.962 172.398 113.696 173.653 113.585C175.493 113.468 177.34 113.652 179.121 114.131C180.847 114.541 182.489 115.25 183.97 116.227C184.922 116.906 185.165 117.342 184.937 117.415Z" fill="#263238"/>
<path d="M180.139 122.338C180.159 122.86 179.972 123.368 179.62 123.754C179.268 124.139 178.778 124.37 178.257 124.397C178.003 124.423 177.747 124.399 177.503 124.325C177.259 124.251 177.033 124.128 176.837 123.965C176.641 123.803 176.479 123.602 176.362 123.376C176.245 123.149 176.174 122.902 176.153 122.648C176.137 122.126 176.324 121.619 176.676 121.233C177.027 120.848 177.515 120.614 178.035 120.582C178.289 120.555 178.546 120.58 178.79 120.655C179.035 120.729 179.262 120.852 179.458 121.016C179.654 121.179 179.815 121.381 179.932 121.608C180.049 121.835 180.119 122.083 180.139 122.338Z" fill="#263238"/>
<path d="M206.677 121.659C206.695 122.179 206.509 122.687 206.159 123.073C205.809 123.459 205.322 123.693 204.802 123.725C204.548 123.752 204.292 123.729 204.047 123.655C203.803 123.581 203.576 123.459 203.38 123.296C203.184 123.133 203.022 122.932 202.905 122.705C202.788 122.478 202.718 122.23 202.699 121.976C202.679 121.455 202.864 120.946 203.214 120.56C203.565 120.174 204.053 119.94 204.573 119.909C204.827 119.882 205.084 119.906 205.328 119.98C205.572 120.053 205.799 120.175 205.995 120.338C206.192 120.502 206.353 120.703 206.47 120.929C206.587 121.156 206.657 121.404 206.677 121.659Z" fill="#263238"/>
<path d="M193.939 134.537C193.939 134.374 195.651 134.035 198.448 133.607C199.186 133.518 199.828 133.363 199.924 132.869C199.965 132.133 199.783 131.402 199.4 130.773L197.186 125.407C194.079 117.762 191.806 111.474 192.116 111.349C192.426 111.223 195.194 117.319 198.308 124.965C199.046 126.854 199.784 128.655 200.456 130.367C200.743 131.171 201.194 132.079 200.891 133.149C200.795 133.403 200.641 133.631 200.443 133.817C200.245 134.002 200.007 134.14 199.747 134.219C199.357 134.338 198.952 134.405 198.544 134.418C195.703 134.64 193.954 134.692 193.939 134.537Z" fill="#263238"/>
<path d="M181.179 106.758C180.958 107.496 178.493 107.194 175.622 107.622C172.752 108.05 170.456 108.921 170.036 108.308C169.859 108.02 170.25 107.356 171.172 106.662C172.392 105.803 173.803 105.254 175.283 105.061C176.755 104.84 178.258 104.987 179.659 105.489C180.729 105.902 181.275 106.434 181.179 106.758Z" fill="#455A64"/>
<path d="M211.127 105.896C210.861 106.471 208.455 106.095 205.592 106.287C202.728 106.479 200.426 107.069 200.049 106.53C199.887 106.272 200.315 105.733 201.267 105.209C202.552 104.54 203.968 104.162 205.415 104.102C206.872 104.005 208.333 104.216 209.702 104.722C210.736 105.135 211.237 105.623 211.127 105.896Z" fill="#455A64"/>
<path d="M154.051 124.368C153.733 124.242 141.505 120.988 142.198 133.371C142.892 145.755 155.187 142.508 155.187 142.146C155.187 141.785 154.051 124.368 154.051 124.368Z" fill="#FFD5BE"/>
<path d="M151.141 137.666C151.082 137.666 150.935 137.836 150.58 138.021C150.078 138.271 149.499 138.316 148.964 138.146C147.628 137.74 146.411 135.725 146.226 133.497C146.135 132.435 146.281 131.366 146.654 130.367C146.75 129.975 146.939 129.611 147.205 129.307C147.471 129.002 147.806 128.766 148.182 128.618C148.428 128.542 148.692 128.552 148.932 128.647C149.171 128.743 149.37 128.918 149.495 129.142C149.68 129.482 149.614 129.733 149.68 129.748C149.746 129.762 149.931 129.526 149.805 129.01C149.716 128.711 149.529 128.451 149.274 128.272C148.92 128.031 148.485 127.941 148.064 128.021C147.56 128.15 147.098 128.406 146.722 128.766C146.346 129.125 146.068 129.575 145.916 130.072C145.457 131.18 145.274 132.383 145.385 133.578C145.606 136.072 147.016 138.338 148.839 138.744C149.175 138.821 149.525 138.822 149.862 138.747C150.199 138.671 150.515 138.522 150.787 138.308C151.134 138.006 151.186 137.688 151.141 137.666Z" fill="#FFB194"/>
<path d="M214.19 87.0394C212.485 83.5192 209.54 80.7369 206.36 78.4565C199.504 73.4362 191.241 70.7041 182.744 70.6484C174.308 70.7296 165.843 73.9547 159.866 79.9325C155.154 84.8304 151.984 91.0049 150.751 97.6888C149.538 104.35 149.663 111.187 151.12 117.799C151.711 120.707 152.596 123.703 154.678 125.807C155.991 127.113 158.205 127.939 159.644 126.773C160.493 126.087 160.781 124.943 161.024 123.88C163.172 114.286 165.275 103.91 161.548 94.781C163.75 91.5519 166.591 88.809 169.895 86.7221C173.26 84.759 177.371 83.8513 181.12 84.9066C186.692 86.4785 190.227 91.77 194.729 95.401C201.164 100.567 206.05 103.63 213.983 101.305L214.19 87.0394Z" fill="#263238"/>
<path d="M191.879 143.364C191.982 143.039 189.495 142.552 187.569 140.449C186.763 139.524 186.083 138.497 185.547 137.393C185.104 136.53 184.772 135.999 184.647 136.05C184.521 136.102 184.647 136.707 184.905 137.659C185.293 138.938 185.955 140.117 186.846 141.113C187.764 142.109 188.934 142.839 190.233 143.224C191.2 143.512 191.879 143.475 191.879 143.364Z" fill="#263238"/>
<path d="M213.504 86.095C173.755 61.5639 148.501 94.8772 148.501 94.8772C147.401 99.4454 146.397 105.873 151.135 118.656C176.08 90.0359 214.441 104.973 214.441 104.973L213.504 86.095Z" fill="#FDD835"/>
<path d="M151.289 119.386C150.912 118.677 150.598 117.936 150.352 117.172C149.688 115.348 149.128 113.487 148.677 111.6C148.22 109.71 147.907 107.788 147.739 105.851C147.68 105.113 147.651 104.508 147.651 104.087C147.622 103.871 147.622 103.653 147.651 103.438C147.805 104.225 147.914 105.021 147.976 105.821C148.222 107.734 148.567 109.634 149.009 111.511C149.533 113.725 150.131 115.666 150.573 117.083C150.865 117.833 151.104 118.602 151.289 119.386Z" fill="#455A64"/>
<path d="M149.18 90.353C147.264 93.3904 145.974 96.7803 145.387 100.323C145.225 101.312 145.173 102.478 145.926 103.143C147.018 104.109 148.789 103.143 149.572 101.917C150.354 100.692 150.782 99.1426 151.97 98.2939C150.76 99.6813 151.756 102.139 153.513 102.722C155.269 103.305 157.239 102.419 158.457 101.032C159.582 99.558 160.406 97.8782 160.885 96.0873C160.214 97.0762 161.084 98.567 162.258 98.7736C162.849 98.8197 163.442 98.6954 163.965 98.4156C164.488 98.1357 164.92 97.7119 165.21 97.1943C165.781 96.1446 166.153 94.9989 166.309 93.8142C166.981 90.5006 167.881 87.1722 169.667 84.3088C171.453 81.4454 174.782 78.2572 178.095 77.6151C172.649 75.4011 165.778 76.2867 160.383 78.6262C154.941 81.0279 150.675 85.4929 148.524 91.0394" fill="#263238"/>
<path d="M185.003 94.1531C185.429 93.4588 185.951 92.8278 186.552 92.2786C187.169 91.7208 187.892 91.294 188.678 91.0239C189.315 90.8205 189.98 90.7184 190.648 90.7214C191.007 90.7225 191.365 90.7521 191.718 90.8099L191.645 89.9169H191.408C190.995 89.9169 190.397 89.7989 189.674 89.7472C189.283 89.7249 188.891 89.7249 188.501 89.7472C188.06 89.7682 187.622 89.835 187.194 89.9465C186.734 90.0718 186.294 90.2633 185.888 90.5147C185.453 90.7996 185.051 91.1339 184.693 91.511C184.501 91.7029 184.316 91.9022 184.139 92.1088C183.962 92.3081 183.8 92.5147 183.63 92.7214C183.305 93.1346 183.017 93.5479 182.744 93.9464C182.198 94.7435 181.748 95.5036 181.364 96.1604L181.047 96.6918L183.903 96.463C183.969 96.3007 184.036 96.1235 184.117 95.9317C184.364 95.3162 184.66 94.7214 185.003 94.1531Z" fill="#6A5533"/>
<path d="M180.81 85.4377C180.485 85.8215 180.212 86.22 179.946 86.5964C179.681 86.9727 179.437 87.3344 179.208 87.6591L178.795 88.2347L178.965 90.3602L179.282 89.8362C179.533 89.4229 179.806 88.9801 180.131 88.5299C180.469 88.0451 180.852 87.593 181.275 87.1794C181.385 87.0687 181.511 86.9727 181.629 86.862L181.821 86.7144L182.013 86.5742C182.281 86.3777 182.568 86.2072 182.869 86.065C183.449 85.7867 184.065 85.5881 184.699 85.4746C185.278 85.3641 185.866 85.3097 186.455 85.3122C187.449 85.3122 188.439 85.4236 189.407 85.6443C190.048 85.7854 190.679 85.9678 191.297 86.1905H191.356L191.215 84.4562C191.215 84.4562 191.215 84.4562 191.215 84.3971L191.024 84.3528C190.596 84.2421 189.99 84.0503 189.238 83.8436C188.585 83.6612 187.922 83.5158 187.252 83.4082L183.083 83.7477C182.678 83.9057 182.294 84.1114 181.939 84.3602C181.512 84.6621 181.131 85.0251 180.81 85.4377Z" fill="#6A5533"/>
<path d="M183.097 88.5598C183.372 88.3911 183.658 88.2407 183.953 88.1097C184.241 87.982 184.537 87.8735 184.839 87.7849C185.403 87.6243 185.981 87.5204 186.566 87.475C187.555 87.405 188.548 87.4745 189.518 87.6816C190.157 87.8118 190.784 87.9945 191.392 88.2277L191.533 88.2868L191.392 86.5303H191.223C190.772 86.4639 190.116 86.3532 189.311 86.2499C188.383 86.1173 187.444 86.0655 186.507 86.0949C185.961 86.1159 185.418 86.18 184.883 86.2868C184.317 86.4017 183.767 86.5851 183.245 86.8329C182.986 86.9548 182.739 87.1006 182.507 87.2683L182.33 87.3938L182.167 87.5193L181.85 87.7923C181.453 88.1673 181.087 88.5746 180.758 89.01C180.433 89.4233 180.145 89.8513 179.872 90.2425C179.599 90.6336 179.341 90.9805 179.09 91.3421L179.245 93.2609C179.603 92.4875 180.028 91.7467 180.514 91.0469C181.201 90.0544 182.079 89.2089 183.097 88.5598Z" fill="#6A5533"/>
<path d="M188.521 93.5113C188.929 93.1478 189.392 92.8514 189.893 92.6331C190.299 92.4566 190.73 92.3446 191.17 92.301C191.393 92.2778 191.619 92.2778 191.842 92.301L191.746 91.1719C191.465 91.1719 191.104 91.2235 190.683 91.2826C190.082 91.3528 189.491 91.4991 188.927 91.718C188.251 91.9896 187.628 92.3794 187.089 92.8693C186.535 93.3723 186.04 93.9368 185.613 94.5519C185.207 95.1202 184.875 95.6663 184.609 96.1239L184.477 96.3453L186.787 96.1608C186.787 96.0722 186.846 95.9689 186.89 95.8656C187.24 94.9623 187.793 94.1517 188.506 93.4966L188.521 93.5113Z" fill="#6A5533"/>
<path d="M191.282 92.8694C190.911 92.9781 190.553 93.124 190.212 93.3048C189.799 93.5326 189.413 93.8048 189.06 94.1166C188.429 94.7115 187.878 95.3863 187.422 96.124L190.758 95.8509C190.937 95.837 191.112 95.7876 191.272 95.7058C191.433 95.6239 191.575 95.5111 191.692 95.374C191.809 95.2368 191.897 95.0779 191.952 94.9064C192.007 94.735 192.027 94.5543 192.012 94.3749L191.872 92.707C191.673 92.751 191.476 92.8052 191.282 92.8694Z" fill="#6A5533"/>
<path d="M178.738 87.3487C178.937 87.0018 179.151 86.6107 179.394 86.2343C179.651 85.7997 179.929 85.3785 180.228 84.9723C180.521 84.5852 180.855 84.2313 181.225 83.917L179.83 84.0351C179.65 84.049 179.475 84.0984 179.315 84.1802C179.155 84.2621 179.012 84.3748 178.895 84.512C178.779 84.6492 178.69 84.8081 178.635 84.9796C178.58 85.151 178.56 85.3317 178.575 85.5111L178.73 87.3708L178.738 87.3487Z" fill="#6A5533"/>
<path d="M189.393 83.32C189.977 83.5354 190.548 83.7818 191.105 84.058C190.997 83.789 190.805 83.5617 190.558 83.4091C190.311 83.2565 190.022 83.1865 189.733 83.2093L189.238 83.2536L189.393 83.32Z" fill="#6A5533"/>
<path d="M180.501 96.6772C180.604 96.4336 180.722 96.1679 180.862 95.8727C181.234 95.0736 181.653 94.2974 182.117 93.548C182.682 92.6107 183.351 91.7394 184.109 90.9503C184.516 90.5269 184.975 90.1574 185.475 89.8507C185.952 89.5621 186.473 89.3528 187.017 89.2307C187.502 89.1287 187.997 89.0792 188.493 89.0831C188.916 89.0911 189.338 89.1281 189.755 89.1938C190.344 89.2907 190.924 89.4338 191.49 89.6219L191.637 89.6735L191.549 88.5887H191.298C190.855 88.5149 190.213 88.3968 189.416 88.3082C188.499 88.2032 187.573 88.2032 186.656 88.3082C185.553 88.4194 184.488 88.7695 183.534 89.3341C182.593 89.9349 181.769 90.6998 181.098 91.5923C180.536 92.3357 180.031 93.1202 179.586 93.9392L179.312 94.441L179.401 95.5111C179.439 95.7962 179.566 96.0621 179.763 96.2713C179.96 96.4805 180.218 96.6225 180.501 96.6772Z" fill="#6A5533"/>
<path d="M155.563 177.718C155.563 177.718 172.906 189.474 183.275 188.972C193.644 188.47 205.415 176.5 205.415 176.5L219.806 191.74L184.943 247.267L164.53 243.289C164.53 243.289 140.914 193.245 141.652 192.492C142.39 191.74 155.563 177.718 155.563 177.718Z" fill="#FAFAFA"/>
<path d="M185.4 219.976L154.898 176.5L149.902 181.814L118.338 200.67L131.578 318.469C131.578 318.469 123.556 325.399 123.925 328.314C124.294 331.229 126.877 336.329 126.877 336.329L123.925 346.904H254.418L256.632 228.441L262.462 190.168L212.027 178.36L205.902 174.286L185.4 219.976Z" fill="#FDD835"/>
<path d="M257.643 204.005C257.746 204.005 257.266 219.422 256.558 238.425C255.849 257.429 255.2 272.838 255.082 272.838C254.964 272.838 255.458 257.421 256.159 238.41C256.86 219.4 257.562 204.005 257.643 204.005Z" fill="#455A64"/>
<path d="M255.098 310.07C255.098 310.07 254.994 309.967 254.802 309.753C254.611 309.539 254.33 309.206 253.976 308.801L250.825 305.111C248.109 301.871 244.227 297.14 239.504 291.236C230.065 279.428 217.297 262.904 203.489 244.44C189.681 225.975 177.386 209.075 168.626 196.765C164.242 190.603 160.737 185.592 158.368 182.086C155.999 178.58 154.774 176.588 154.899 176.521C154.918 176.554 154.932 176.589 154.944 176.625C154.987 176.721 155.037 176.815 155.091 176.905C155.239 177.156 155.46 177.518 155.763 177.983C156.368 178.913 157.291 180.271 158.493 182.005C160.899 185.473 164.434 190.47 168.825 196.602C177.681 208.875 189.954 225.739 203.777 244.211C217.6 262.683 230.345 279.229 239.696 291.066C244.389 296.97 248.242 301.745 250.921 305.015L254.013 308.771C254.36 309.192 254.625 309.509 254.81 309.753C254.994 309.996 255.098 310.07 255.098 310.07Z" fill="#455A64"/>
<path d="M254.609 324.956C254.609 324.956 254.484 324.868 254.248 324.668L253.222 323.783L249.318 320.351C245.938 317.355 241.045 313.015 235.185 307.451C228.294 300.945 221.787 294.046 215.695 286.787C208.816 278.602 201.805 269.163 194.684 259.104C187.562 249.046 180.809 239.481 174.905 230.588C171.953 226.16 169.215 221.858 166.736 217.806C164.256 213.754 162.049 209.909 160.145 206.345C157.083 200.746 154.319 194.989 151.865 189.098C150.972 187.024 150.389 185.371 149.953 184.257C149.747 183.71 149.592 183.29 149.481 182.987C149.37 182.685 149.326 182.552 149.326 182.552C149.326 182.552 149.4 182.692 149.518 182.98L150.027 184.227C150.477 185.327 151.083 186.972 152.005 189.039C154.507 194.901 157.305 200.633 160.389 206.212C162.3 209.769 164.551 213.592 167.031 217.636C169.51 221.681 172.256 225.946 175.223 230.389C181.127 239.245 187.953 248.839 195.06 258.92C202.167 269.001 209.171 278.411 216.027 286.595C222.096 293.846 228.574 300.746 235.429 307.259C241.259 312.846 246.13 317.215 249.451 320.248L253.31 323.731L254.314 324.646L254.609 324.956Z" fill="#455A64"/>
<path d="M213.283 178.684C213.27 178.872 213.243 179.06 213.202 179.244C213.118 179.643 213.015 180.174 212.892 180.839C212.626 182.219 212.154 184.204 211.571 186.639C210.988 189.075 210.161 191.968 209.18 195.141C208.198 198.314 206.966 201.783 205.586 205.34C204.206 208.897 202.707 212.263 201.291 215.274C199.874 218.285 198.494 220.934 197.276 223.133C196.058 225.333 195.062 227.104 194.324 228.299L193.468 229.679C193.373 229.842 193.267 229.997 193.15 230.144C193.215 229.966 193.299 229.795 193.401 229.635C193.601 229.281 193.866 228.816 194.191 228.226C194.929 227.008 195.874 225.229 197.054 223.015C198.235 220.801 199.578 218.13 200.988 215.126C202.398 212.122 203.837 208.772 205.246 205.207C206.656 201.643 207.829 198.196 208.855 195.038C209.881 191.879 210.685 189.008 211.32 186.58C211.955 184.152 212.449 182.152 212.759 180.809C212.921 180.16 213.047 179.636 213.135 179.237C213.168 179.049 213.218 178.863 213.283 178.684Z" fill="#455A64"/>
<path d="M217.806 310.801C217.611 310.749 217.421 310.679 217.238 310.594L215.622 309.915L214.463 309.421C214.035 309.251 213.555 309.096 213.053 308.911C212.035 308.557 210.899 308.092 209.585 307.753L207.541 307.155C206.803 306.956 206.065 306.816 205.327 306.631C203.784 306.24 202.094 305.996 200.33 305.709C192.619 304.616 184.771 304.964 177.187 306.734C175.452 307.177 173.792 307.568 172.294 308.092C171.556 308.343 170.818 308.55 170.08 308.83L168.102 309.605C166.818 310.063 165.733 310.624 164.744 311.081C164.257 311.31 163.799 311.509 163.386 311.716L162.272 312.314L160.729 313.125C160.551 313.227 160.366 313.316 160.176 313.391C160.337 313.264 160.51 313.153 160.692 313.059L162.205 312.181L163.305 311.554C163.711 311.34 164.168 311.125 164.655 310.889C165.63 310.432 166.722 309.849 167.999 309.413L169.976 308.609C170.67 308.336 171.416 308.122 172.19 307.871C173.703 307.325 175.364 306.926 177.106 306.469C184.729 304.651 192.628 304.301 200.382 305.435C202.153 305.738 203.851 305.996 205.4 306.402C206.175 306.594 206.935 306.742 207.651 306.956L209.696 307.576C211.009 307.937 212.146 308.417 213.157 308.786C213.659 308.985 214.138 309.148 214.559 309.332L215.71 309.863L217.297 310.601C217.47 310.658 217.641 310.724 217.806 310.801Z" fill="#455A64"/>
<path d="M262.433 190.167C262.433 190.167 272.765 194.676 279.924 203.001C287.082 211.325 318.381 240.019 322.396 248.919C326.41 257.819 331.008 269.871 326.986 279.34C322.964 288.808 320.388 289.959 306.898 287.089C293.407 284.218 253.762 256.646 253.762 256.646L257.621 209.968L262.433 190.167Z" fill="#FDD835"/>
<path d="M118.338 200.669C118.338 200.669 107.054 208.558 102.205 224.883C98.9582 235.813 81.4897 283.34 81.9768 289.923C82.4639 296.506 82.8698 320.476 95.0689 325.841C107.268 331.206 127.364 326.705 131.578 318.461C135.792 310.218 118.338 200.669 118.338 200.669Z" fill="#FDD835"/>
<path d="M120.752 281.524C120.525 281.15 120.325 280.761 120.154 280.358C119.977 279.974 119.748 279.51 119.416 278.993C119.084 278.476 118.818 277.856 118.39 277.236L117.748 276.248C117.527 275.901 117.254 275.569 117.01 275.207C116.501 274.469 115.874 273.775 115.232 272.993C112.352 269.765 108.86 267.142 104.959 265.274C104.044 264.875 103.195 264.462 102.354 264.181C101.94 264.034 101.542 263.864 101.151 263.746L100.014 263.406C99.2762 263.17 98.6268 263.052 98.0511 262.912C97.5648 262.785 97.0721 262.684 96.5751 262.609C96.1406 262.563 95.7109 262.479 95.291 262.358C95.7284 262.359 96.1652 262.394 96.5973 262.462C97.1105 262.512 97.6205 262.591 98.1249 262.698C98.799 262.813 99.4666 262.963 100.125 263.148L101.276 263.465C101.675 263.576 102.081 263.738 102.501 263.879C103.35 264.152 104.221 264.558 105.143 264.956C107.117 265.891 108.996 267.016 110.752 268.314C112.482 269.636 114.083 271.119 115.534 272.742C116.176 273.517 116.804 274.218 117.306 274.956C117.556 275.325 117.83 275.694 118.044 276.011L118.671 277.03C119.032 277.61 119.362 278.208 119.66 278.823C119.904 279.277 120.121 279.745 120.309 280.225C120.495 280.644 120.644 281.079 120.752 281.524Z" fill="#455A64"/>
<path d="M116.774 224.883C116.799 224.962 116.816 225.044 116.825 225.126C116.825 225.311 116.885 225.547 116.929 225.864C117.017 226.529 117.135 227.466 117.29 228.654C117.586 231.104 118.028 234.602 118.523 238.92C119.541 247.598 120.899 259.584 122.294 272.868C123.689 286.152 124.84 298.137 125.571 306.816C125.925 311.17 126.205 314.69 126.36 317.148C126.434 318.35 126.493 319.288 126.53 319.959C126.53 320.262 126.53 320.498 126.567 320.697C126.577 320.778 126.577 320.86 126.567 320.941C126.548 320.861 126.536 320.779 126.53 320.697C126.53 320.513 126.486 320.269 126.456 319.959C126.397 319.295 126.316 318.358 126.213 317.162C125.991 314.705 125.681 311.192 125.298 306.83C124.501 298.137 123.305 286.129 121.91 272.882C120.515 259.635 119.194 247.665 118.257 238.934C117.785 234.61 117.409 231.104 117.143 228.647C117.017 227.451 116.921 226.514 116.855 225.85L116.789 225.112C116.777 225.036 116.772 224.959 116.774 224.883Z" fill="#455A64"/>
<path d="M97.977 324.956C97.977 324.956 91.6523 322.277 91.6523 312.823C91.6523 303.369 94.1763 299.045 98.2427 295.546C105.047 289.694 118.508 288.469 118.508 288.469L127.77 283.775L143.334 301.628C143.334 301.628 132.05 320.734 125.032 324.269C118.014 327.804 103.711 327.989 97.977 324.956Z" fill="#FFD5BE"/>
<path d="M208.183 300.137L90.9883 272.846L91.8444 269.045L208.81 295.259L208.183 300.137Z" fill="#E0E0E0"/>
<path d="M110.035 277.119C110.035 277.119 109.223 280.182 112.766 281.547C116.308 282.912 123.408 284.757 123.408 284.757L119.718 287.864C119.718 287.864 122.891 297.923 129.142 300.794C135.393 303.665 142.795 302.521 142.795 302.521L150.36 296.92C150.36 296.92 154.64 299.06 157.85 297.252C157.85 297.252 163.481 298.898 166.706 297.717C169.931 296.536 175.643 292.602 175.643 292.602L165.931 290.307C165.931 290.307 167.304 281.193 162.743 282.189C159.936 282.874 157.439 284.48 155.651 286.75C155.651 286.75 154.3 284.145 151.769 283.761C149.238 283.377 144.507 285.237 144.507 285.237L127.245 281.023L110.035 277.119Z" fill="#FFD5BE"/>
<path d="M128.206 304.543C127.942 304.417 127.694 304.261 127.468 304.078C126.801 303.618 126.17 303.11 125.578 302.557C124.688 301.736 123.889 300.82 123.195 299.827C122.33 298.606 121.716 297.227 121.386 295.768C121.145 294.302 121.145 292.806 121.386 291.34C121.541 290.148 121.793 288.97 122.139 287.82C122.379 287.044 122.662 286.283 122.988 285.539C123.091 285.26 123.233 284.997 123.409 284.757C123.468 284.757 122.936 285.93 122.398 287.893C122.072 289.041 121.825 290.21 121.66 291.391C121.45 292.824 121.465 294.281 121.704 295.709C122.026 297.117 122.612 298.452 123.431 299.642C124.097 300.625 124.858 301.54 125.704 302.373C127.187 303.782 128.25 304.484 128.206 304.543Z" fill="#FFB194"/>
<path d="M164.5 291.554C163.928 292.122 163.308 292.641 162.647 293.104C161.459 294.004 159.85 295.273 157.968 296.587C157.074 297.227 156.043 297.652 154.957 297.827C154.068 297.915 153.171 297.842 152.308 297.613C151.734 297.464 151.17 297.282 150.618 297.067C150.409 297.004 150.21 296.912 150.027 296.794C150.027 296.727 150.928 297.037 152.367 297.347C153.202 297.531 154.063 297.574 154.913 297.472C155.94 297.289 156.914 296.878 157.762 296.27C159.607 294.978 161.26 293.723 162.485 292.882C163.124 292.391 163.797 291.947 164.5 291.554Z" fill="#FFB194"/>
<path d="M155.431 288.107C155.331 289.48 154.886 290.805 154.139 291.96C153.504 293.181 152.579 294.227 151.445 295.008C152.297 293.976 153.085 292.894 153.807 291.768C154.421 290.581 154.963 289.359 155.431 288.107Z" fill="#FFB194"/>
<path d="M149.18 295.281C148.838 295.6 148.385 295.774 147.918 295.768C147.361 295.795 146.804 295.707 146.283 295.51C145.761 295.313 145.285 295.012 144.885 294.624C144.114 293.849 143.513 292.921 143.121 291.901C142.919 291.499 142.782 291.068 142.715 290.624C142.983 290.98 143.204 291.37 143.372 291.783C143.812 292.731 144.411 293.597 145.143 294.344C145.893 295.055 146.877 295.467 147.91 295.502C148.34 295.473 148.765 295.399 149.18 295.281Z" fill="#FFB194"/>
<path d="M141.615 302.373C141.425 302.467 141.22 302.527 141.009 302.55C140.449 302.648 139.88 302.68 139.312 302.646C137.425 302.509 135.602 301.905 134.006 300.889C132.434 299.875 130.996 298.668 129.725 297.295C129.163 296.765 128.654 296.182 128.205 295.554C128.814 296.027 129.386 296.545 129.917 297.103C131.226 298.397 132.663 299.554 134.205 300.557C135.766 301.549 137.533 302.17 139.371 302.373C140.118 302.413 140.867 302.413 141.615 302.373Z" fill="#FFB194"/>
<path d="M128.042 265.828C128.432 265.848 128.821 265.767 129.171 265.592C129.342 265.496 129.471 265.34 129.532 265.155C129.594 264.969 129.583 264.767 129.503 264.588C129.289 264.234 128.765 264.234 128.374 264.271C128.758 263.99 129.086 263.64 129.341 263.238C129.379 263.191 129.407 263.136 129.422 263.078C129.437 263.019 129.44 262.958 129.429 262.898C129.363 262.706 129.09 262.714 128.905 262.78C128.678 262.853 128.463 262.963 128.271 263.105L128.352 262.824C128.706 261.548 129.038 260.101 128.352 258.957C127.665 257.813 126.226 257.393 124.92 257.105C121.771 256.426 118.598 255.84 115.4 255.348C113.725 254.5 111.407 255.348 110.234 256.906C109.861 257.404 109.555 257.95 109.326 258.529C109.256 258.392 109.158 258.272 109.038 258.175C108.974 258.12 108.899 258.08 108.818 258.056C108.737 258.032 108.651 258.025 108.568 258.035C108.484 258.045 108.403 258.073 108.33 258.116C108.258 258.159 108.195 258.217 108.145 258.286C107.983 258.603 108.249 258.972 108.5 259.23C108.343 259.276 108.204 259.366 108.099 259.49C107.994 259.614 107.928 259.766 107.909 259.928C107.89 260.089 107.919 260.253 107.993 260.398C108.066 260.543 108.181 260.663 108.322 260.743C108.069 260.796 107.832 260.907 107.629 261.068C107.529 261.149 107.458 261.261 107.427 261.386C107.396 261.511 107.408 261.643 107.459 261.762C107.614 262.027 107.99 262.049 108.293 261.998L108.514 261.931C108.463 262.308 108.418 262.669 108.374 263.075C108.204 264.551 107.872 265.806 107.703 267.297C106.964 267.298 106.236 267.472 105.577 267.806C105.484 267.842 105.4 267.897 105.329 267.967C105.258 268.036 105.202 268.12 105.164 268.212C105.068 268.573 105.503 268.846 105.902 268.869C106.268 268.822 106.64 268.866 106.987 268.994C106.541 269.325 106.178 269.755 105.924 270.249C105.885 270.307 105.861 270.373 105.853 270.442C105.846 270.512 105.855 270.582 105.88 270.647C105.961 270.787 106.153 270.795 106.315 270.78C106.804 270.719 107.276 270.561 107.703 270.315C107.703 270.426 107.703 270.536 107.703 270.64C107.48 270.798 107.294 271.001 107.156 271.238C106.957 271.702 107.452 272.226 107.961 272.263C108.069 272.278 108.178 272.278 108.286 272.263C108.586 272.646 108.966 272.958 109.4 273.178C109.472 273.27 109.559 273.347 109.658 273.407C109.825 273.498 110.015 273.538 110.204 273.525C110.581 273.666 110.942 273.776 111.341 273.88L120.33 276.33C121.57 276.669 123.023 276.964 124.02 276.182C124.679 275.553 125.117 274.727 125.267 273.828C125.921 271.437 126.583 269.043 127.252 266.647C127.527 266.863 127.821 267.053 128.13 267.215C128.264 267.293 128.412 267.341 128.566 267.356C128.644 267.362 128.722 267.344 128.79 267.306C128.858 267.268 128.914 267.211 128.95 267.142C128.971 267.073 128.977 267.001 128.968 266.929C128.959 266.858 128.935 266.79 128.898 266.728C128.715 266.345 128.415 266.03 128.042 265.828Z" fill="white"/>
<path d="M173.68 281.583C174.236 279.02 174.792 276.454 175.348 273.886C175.632 272.939 175.813 271.964 175.887 270.978C175.975 269.392 174.078 267.517 172.13 267.288C169.377 266.735 168.787 266.875 166.307 266.019C163.828 265.163 160.802 264.794 158.824 266.513C156.846 268.233 156.78 271.074 156.359 273.598C155.909 276.255 154.972 279.052 155.997 281.539C157.223 284.491 160.684 285.738 163.761 286.646C166.337 287.384 169.429 288.078 171.481 286.336C172.846 285.207 173.304 283.332 173.68 281.583Z" fill="#455A64"/>
<path d="M167.673 267.775C166.43 267.241 165.123 266.874 163.784 266.683C162.43 266.492 161.054 266.833 159.946 267.635C158.625 268.698 158.131 270.484 157.954 272.166C157.776 273.849 157.835 275.59 157.289 277.199C157.098 277.613 156.997 278.064 156.994 278.52C157.038 278.971 157.437 279.435 157.887 279.347C157.725 279.622 157.632 279.933 157.616 280.253C157.6 280.572 157.662 280.89 157.796 281.181C157.931 281.471 158.133 281.724 158.387 281.919C158.64 282.114 158.937 282.244 159.252 282.299C159.887 283.443 160.906 284.513 162.204 284.616C163.068 284.69 164.005 284.328 164.773 284.742C165.1 284.963 165.394 285.232 165.644 285.539C165.768 285.69 165.922 285.815 166.096 285.906C166.269 285.997 166.459 286.053 166.655 286.07C167.053 286.07 167.444 285.679 167.311 285.332C167.552 285.617 167.852 285.846 168.19 286.004C168.359 286.079 168.547 286.098 168.728 286.059C168.909 286.019 169.072 285.922 169.193 285.782C169.415 285.48 169.193 284.948 168.854 284.948C169.207 284.989 169.565 284.95 169.901 284.834C170.237 284.718 170.542 284.527 170.795 284.277C171.295 283.768 171.691 283.166 171.961 282.506C173.109 279.737 173.898 276.833 174.308 273.864C174.502 273.126 174.525 272.353 174.374 271.605C174.287 271.235 174.078 270.904 173.781 270.666C173.484 270.428 173.116 270.296 172.736 270.292C172.824 270.291 172.911 270.272 172.992 270.236C173.072 270.2 173.145 270.148 173.204 270.083C173.264 270.018 173.309 269.941 173.338 269.858C173.366 269.774 173.377 269.686 173.37 269.598C173.344 269.412 173.257 269.239 173.124 269.106C172.991 268.973 172.819 268.887 172.632 268.86C172.275 268.801 171.909 268.886 171.614 269.096C171.686 269.052 171.747 268.991 171.792 268.919C171.837 268.847 171.865 268.766 171.873 268.681C171.88 268.596 171.869 268.511 171.838 268.432C171.807 268.353 171.758 268.282 171.695 268.225C171.553 268.124 171.383 268.07 171.208 268.07C171.033 268.07 170.863 268.124 170.721 268.225C170.439 268.432 170.218 268.709 170.079 269.03C169.963 268.448 169.669 267.916 169.238 267.509C169.128 267.421 169 267.357 168.864 267.321C168.727 267.285 168.584 267.278 168.445 267.301C168.306 267.324 168.173 267.376 168.055 267.454C167.937 267.532 167.837 267.634 167.762 267.753" fill="white"/>
<path d="M170.603 275.775C170.679 274.683 170.318 273.605 169.6 272.779C168.943 272.103 168.101 271.638 167.179 271.443C167.028 271.408 166.875 271.384 166.721 271.369C165.937 271.221 165.128 271.282 164.375 271.546C163.703 271.779 163.099 272.174 162.618 272.698C161.99 273.431 161.609 274.344 161.531 275.306C161.452 276.268 161.681 277.231 162.183 278.056C162.719 278.859 163.491 279.476 164.392 279.822C165.293 280.168 166.28 280.227 167.216 279.989C168.14 279.711 168.959 279.16 169.563 278.408C170.168 277.656 170.531 276.738 170.603 275.775Z" fill="#FF725E"/>
<path d="M160.656 278.787C160.487 278.81 160.316 278.795 160.154 278.741C159.993 278.687 159.846 278.597 159.726 278.477C159.576 278.35 159.457 278.191 159.377 278.012C159.296 277.834 159.257 277.639 159.261 277.444C159.27 277.194 159.342 276.95 159.471 276.736C159.601 276.521 159.782 276.343 159.999 276.218C160.011 276.212 160.024 276.208 160.038 276.207C160.051 276.206 160.065 276.207 160.078 276.211C160.091 276.215 160.103 276.222 160.114 276.231C160.124 276.24 160.133 276.251 160.139 276.263C160.152 276.286 160.156 276.314 160.149 276.34C160.142 276.367 160.125 276.389 160.102 276.403C160.009 276.451 159.907 276.479 159.803 276.487C159.698 276.494 159.593 276.481 159.494 276.447C159.395 276.413 159.304 276.36 159.226 276.29C159.148 276.221 159.084 276.136 159.039 276.041C158.957 275.847 158.926 275.636 158.949 275.426C158.972 275.217 159.049 275.017 159.172 274.846C159.377 274.551 159.626 274.29 159.91 274.071L159.969 274.27C159.838 274.256 159.712 274.213 159.599 274.145C159.486 274.078 159.389 273.986 159.315 273.878C159.24 273.769 159.19 273.645 159.168 273.516C159.146 273.386 159.152 273.253 159.185 273.125C159.219 272.998 159.28 272.88 159.364 272.778C159.448 272.677 159.553 272.594 159.671 272.537C159.79 272.479 159.919 272.448 160.051 272.446C160.183 272.443 160.313 272.469 160.434 272.521C160.445 272.525 160.454 272.531 160.462 272.539C160.47 272.547 160.476 272.556 160.48 272.567C160.485 272.577 160.487 272.588 160.486 272.599C160.486 272.611 160.483 272.622 160.478 272.632C160.47 272.651 160.455 272.666 160.436 272.675C160.416 272.683 160.395 272.683 160.375 272.676C160.233 272.638 160.103 272.564 159.998 272.46C159.893 272.356 159.817 272.227 159.777 272.086C159.749 271.975 159.757 271.859 159.801 271.753C159.845 271.648 159.922 271.56 160.021 271.503C160.353 271.303 160.56 271.503 160.53 271.503C160.455 271.47 160.373 271.46 160.292 271.471C160.211 271.483 160.135 271.517 160.073 271.569C159.999 271.621 159.944 271.694 159.915 271.779C159.886 271.864 159.884 271.956 159.91 272.041C159.952 272.153 160.02 272.253 160.109 272.333C160.197 272.412 160.304 272.469 160.419 272.499L160.368 272.661C160.191 272.599 159.998 272.607 159.826 272.682C159.655 272.758 159.519 272.895 159.445 273.067C159.412 273.166 159.4 273.272 159.41 273.376C159.42 273.48 159.453 273.581 159.505 273.672C159.558 273.763 159.629 273.841 159.714 273.902C159.799 273.964 159.896 274.006 159.999 274.027C160.027 274.032 160.053 274.048 160.071 274.071C160.088 274.094 160.097 274.123 160.095 274.152C160.089 274.181 160.073 274.207 160.05 274.226C159.767 274.431 159.518 274.681 159.312 274.964C159.21 275.102 159.145 275.264 159.122 275.434C159.098 275.604 159.118 275.777 159.18 275.938C159.246 276.067 159.359 276.167 159.496 276.218C159.632 276.268 159.783 276.266 159.918 276.211L160.021 276.403C159.835 276.516 159.681 276.676 159.573 276.866C159.466 277.055 159.409 277.27 159.408 277.488C159.4 277.661 159.429 277.834 159.494 277.994C159.559 278.155 159.658 278.299 159.785 278.418C160.034 278.622 160.336 278.75 160.656 278.787Z" fill="#263238"/>
<path d="M171.776 274.787C171.776 274.787 171.776 274.846 171.872 274.868C171.898 274.878 171.926 274.883 171.954 274.882C171.982 274.881 172.01 274.874 172.035 274.861C172.06 274.848 172.082 274.831 172.1 274.809C172.117 274.787 172.13 274.762 172.138 274.735C172.173 274.535 172.173 274.33 172.138 274.13C172.141 273.878 172.052 273.634 171.887 273.444C171.867 273.423 171.855 273.395 171.855 273.366C171.855 273.337 171.867 273.309 171.887 273.289C171.903 273.278 171.923 273.273 171.942 273.273C171.962 273.273 171.981 273.278 171.998 273.289C172.143 273.357 172.308 273.371 172.462 273.326C172.581 273.274 172.595 273.097 172.507 272.957C172.418 272.816 172.057 272.728 171.769 272.72C171.739 272.72 171.711 272.709 171.69 272.688C171.67 272.667 171.658 272.639 171.658 272.61C171.659 272.594 171.664 272.578 171.671 272.564C171.679 272.55 171.69 272.538 171.702 272.529C171.934 272.345 172.138 272.129 172.307 271.886C172.352 271.805 172.308 271.761 172.189 271.739C172.087 271.724 171.982 271.724 171.879 271.739C171.676 271.806 171.478 271.89 171.289 271.99C171.289 271.99 171.422 271.746 171.843 271.606C171.959 271.565 172.081 271.545 172.204 271.547C172.288 271.55 172.369 271.581 172.433 271.636C172.47 271.674 172.494 271.723 172.502 271.776C172.51 271.829 172.501 271.883 172.477 271.931C172.314 272.215 172.099 272.465 171.843 272.669L171.776 272.47C171.942 272.449 172.11 272.468 172.267 272.526C172.424 272.583 172.564 272.678 172.676 272.802C172.749 272.91 172.783 273.04 172.772 273.171C172.765 273.24 172.741 273.306 172.7 273.363C172.66 273.42 172.606 273.465 172.544 273.495C172.44 273.535 172.329 273.552 172.219 273.545C172.108 273.539 172 273.509 171.902 273.458L172.012 273.281C172.209 273.511 172.311 273.806 172.3 274.108C172.315 274.334 172.29 274.562 172.226 274.779C172.206 274.825 172.176 274.866 172.137 274.898C172.099 274.93 172.054 274.952 172.005 274.964C171.941 274.988 171.87 274.988 171.806 274.964C171.739 274.861 171.769 274.772 171.776 274.787Z" fill="#263238"/>
<path d="M157.386 276.373C157.386 276.476 156.943 276.646 156.486 277.008C156.028 277.369 155.748 277.746 155.637 277.746C155.526 277.746 155.703 277.148 156.249 276.735C156.796 276.321 157.371 276.27 157.386 276.373Z" fill="#263238"/>
<path d="M160.478 267.112C160.368 267.112 160.338 266.787 160.198 266.47C160.058 266.153 159.873 265.917 159.94 265.821C160.006 265.725 160.368 265.887 160.552 266.322C160.737 266.758 160.582 267.156 160.478 267.112Z" fill="#263238"/>
<path d="M165.46 267.274C165.364 267.222 165.46 266.897 165.341 266.536C165.223 266.174 165.068 265.894 165.142 265.798C165.216 265.702 165.607 265.931 165.718 266.447C165.829 266.964 165.548 267.333 165.46 267.274Z" fill="#263238"/>
<path d="M175.062 269.805C175.135 269.886 174.884 270.211 174.427 270.366C173.969 270.521 173.571 270.432 173.578 270.329C173.586 270.226 173.918 270.145 174.316 270.004C174.715 269.864 174.995 269.724 175.062 269.805Z" fill="#263238"/>
<path d="M174.861 276.499C174.861 276.602 174.662 276.713 174.396 276.654C174.131 276.595 173.983 276.388 174.042 276.307C174.101 276.226 174.293 276.233 174.485 276.307C174.677 276.381 174.847 276.388 174.861 276.499Z" fill="#263238"/>
<path d="M172.462 283.953C172.351 283.953 172.351 283.562 172.182 283.17C172.012 282.779 171.768 282.499 171.827 282.432C171.886 282.366 172.329 282.521 172.565 283.045C172.802 283.569 172.558 283.99 172.462 283.953Z" fill="#263238"/>
<path d="M169.636 287.015C169.555 286.941 169.932 286.454 170.05 285.738C170.168 285.023 169.998 284.447 170.101 284.403C170.205 284.358 170.581 284.964 170.433 285.805C170.286 286.646 169.695 287.082 169.636 287.015Z" fill="#263238"/>
<path d="M162.995 285.849C162.914 285.783 162.995 285.547 163.054 285.274C163.113 285.001 163.113 284.742 163.217 284.705C163.32 284.668 163.504 284.956 163.431 285.34C163.357 285.724 163.098 285.923 162.995 285.849Z" fill="#263238"/>
<path d="M158.619 284.381C158.523 284.417 158.309 283.923 158.508 283.325C158.707 282.727 159.165 282.447 159.246 282.536C159.327 282.624 159.047 282.956 158.892 283.443C158.737 283.93 158.729 284.358 158.619 284.381Z" fill="#263238"/>
<path d="M134.501 276.056C134.357 276.003 134.2 275.993 134.05 276.026C133.9 276.06 133.763 276.136 133.655 276.246C133.548 276.356 133.474 276.495 133.444 276.645C133.413 276.796 133.427 276.953 133.483 277.096C133.539 277.239 133.636 277.362 133.761 277.452C133.886 277.541 134.034 277.593 134.188 277.6C134.341 277.607 134.494 277.57 134.627 277.492C134.759 277.415 134.867 277.3 134.936 277.163C134.833 277.518 134.82 277.894 134.899 278.255C134.94 278.432 135.032 278.592 135.163 278.717C135.294 278.842 135.459 278.925 135.637 278.956C135.728 278.962 135.818 278.948 135.902 278.913C135.986 278.879 136.061 278.826 136.122 278.759C136.182 278.691 136.226 278.611 136.251 278.523C136.276 278.436 136.28 278.345 136.265 278.255C136.26 278.362 136.277 278.468 136.314 278.569C136.35 278.669 136.407 278.761 136.479 278.839C136.551 278.918 136.638 278.981 136.735 279.026C136.832 279.071 136.937 279.096 137.043 279.1C137.259 279.109 137.469 279.032 137.627 278.886C137.705 278.814 137.769 278.727 137.814 278.63C137.859 278.533 137.884 278.428 137.888 278.322C137.99 278.804 138.273 279.229 138.678 279.51C139.113 279.731 139.8 279.392 139.674 278.92C139.625 279.132 139.653 279.355 139.754 279.548C139.854 279.741 140.02 279.892 140.222 279.974C140.424 280.056 140.648 280.063 140.855 279.994C141.062 279.925 141.237 279.785 141.349 279.599C141.552 280.023 141.89 280.368 142.309 280.58C142.744 280.742 143.357 280.455 143.327 279.99C143.541 280.373 143.807 280.794 144.235 280.89C144.663 280.986 145.165 280.447 144.87 280.152C145.203 280.476 145.623 280.696 146.079 280.785C146.535 280.875 147.007 280.829 147.438 280.654C147.674 280.861 147.94 281.03 148.228 281.156C148.372 281.216 148.535 281.217 148.681 281.158C148.826 281.098 148.942 280.983 149.003 280.838C149.063 280.694 149.064 280.531 149.004 280.385C148.945 280.24 148.83 280.124 148.685 280.063L147.209 279.377" fill="white"/>
<path d="M144.648 260.816C143.08 259.895 141.353 259.277 139.556 258.993C137.748 258.823 135.741 259.473 134.811 261.03C134.358 261.95 134.107 262.957 134.073 263.982C133.792 266.471 133.515 268.954 133.239 271.428C133.001 272.594 133.082 273.803 133.475 274.926C134.213 276.587 136.139 277.31 137.903 277.878C140.28 278.612 142.676 279.278 145.091 279.878C146.169 280.152 147.364 280.395 148.353 279.878C149.608 279.236 150.014 277.664 150.287 276.277C150.744 273.952 151.172 271.628 151.586 269.296C151.851 267.82 152.102 266.225 151.527 264.823C150.848 263.155 149.15 262.13 147.453 261.51C145.755 260.89 143.947 260.565 142.368 259.687" fill="#455A64"/>
<path d="M152.892 259.82L152.833 259.769C152.145 259.149 151.384 258.614 150.568 258.175C145.778 255.651 139.867 254.654 135.874 255.739C133.048 256.477 129.608 259.569 130.708 262.425C130.786 262.648 130.921 262.846 131.099 263.001C131.49 263.243 131.944 263.362 132.403 263.344C132.862 263.325 133.305 263.17 133.675 262.898C134.457 262.411 135.07 261.695 135.83 261.178C137.252 260.311 138.947 260.006 140.583 260.322C142.204 260.635 143.779 261.153 145.269 261.865C147.704 262.898 150.236 263.99 151.992 265.983C152.892 267.008 153.763 268.359 155.129 268.411C155.653 268.391 156.158 268.205 156.571 267.881C156.983 267.556 157.282 267.108 157.424 266.603C157.564 266.167 157.21 265.377 156.737 264.551C155.721 262.776 154.422 261.178 152.892 259.82Z" fill="#FF725E"/>
<path d="M151.881 267.495C151.696 267.666 151.491 267.813 151.268 267.93C150.688 268.297 150.086 268.63 149.467 268.926C145.38 270.932 140.836 271.825 136.294 271.517C135.608 271.478 134.925 271.396 134.25 271.273C133.997 271.254 133.748 271.197 133.512 271.103C133.512 271.037 134.582 271.192 136.294 271.244C140.784 271.401 145.251 270.525 149.349 268.683C150.921 267.982 151.851 267.436 151.881 267.495Z" fill="#263238"/>
<path d="M150.781 274.285C150.584 274.412 150.37 274.511 150.146 274.58C149.557 274.81 148.956 275.01 148.345 275.178C146.333 275.741 144.258 276.051 142.168 276.1C140.077 276.152 137.988 275.946 135.947 275.488C135.165 275.303 134.545 275.126 134.117 274.978C133.892 274.919 133.676 274.829 133.475 274.713C133.475 274.654 134.441 274.927 135.999 275.214C138.027 275.594 140.09 275.762 142.153 275.716C144.218 275.664 146.271 275.394 148.279 274.912C149.814 274.536 150.759 274.226 150.781 274.285Z" fill="#263238"/>
<path d="M147.917 262.846C147.404 263.323 146.828 263.728 146.205 264.049C144.737 264.888 143.174 265.547 141.548 266.012C139.914 266.475 138.228 266.735 136.53 266.787C135.832 266.845 135.129 266.807 134.441 266.676C135.129 266.583 135.821 266.531 136.515 266.521C138.175 266.386 139.819 266.092 141.423 265.643C143.021 265.182 144.571 264.567 146.05 263.805C146.656 263.454 147.279 263.133 147.917 262.846Z" fill="#263238"/>
<path d="M136.243 260.787C136.243 260.838 135.941 260.919 135.431 260.853C134.766 260.757 134.145 260.463 133.65 260.009C133.155 259.555 132.809 258.961 132.657 258.307C132.546 257.812 132.605 257.495 132.657 257.495C132.828 258.354 133.269 259.136 133.916 259.728C134.562 260.32 135.38 260.691 136.251 260.787H136.243Z" fill="white"/>
<path d="M138.936 255.348C138.972 255.392 138.773 255.613 138.552 256.019C138.267 256.553 138.092 257.137 138.035 257.739C137.991 258.353 137.991 258.97 138.035 259.584C138.035 260.063 138.035 260.366 138.035 260.373C138.035 260.381 137.888 260.093 137.799 259.635C137.672 259.004 137.637 258.358 137.696 257.717C137.755 257.06 137.987 256.432 138.367 255.894C138.626 255.473 138.906 255.348 138.936 255.348Z" fill="white"/>
<path d="M145.445 256.344C144.824 256.951 144.247 257.602 143.718 258.292C143.293 259.053 142.921 259.842 142.604 260.654C142.551 259.728 142.831 258.815 143.394 258.078C143.846 257.271 144.574 256.655 145.445 256.344Z" fill="white"/>
<path d="M151.289 258.845C151.004 259.787 150.468 260.634 149.74 261.296C149.105 262.046 148.282 262.614 147.356 262.941C147.297 262.845 148.382 262.159 149.459 261.03C150.537 259.901 151.208 258.794 151.289 258.845Z" fill="white"/>
<path d="M155.718 263.355C155.762 263.355 155.718 263.651 155.408 264.027C155.053 264.514 154.584 264.907 154.043 265.171C153.505 265.441 152.91 265.58 152.308 265.577C151.851 265.577 151.57 265.474 151.57 265.422C152.364 265.383 153.141 265.18 153.851 264.824C154.561 264.468 155.19 263.968 155.696 263.355H155.718Z" fill="white"/>
<g opacity="0.3">
<path d="M137.209 259.627C138.825 259.169 143.755 259.546 148.847 262.343C153.939 265.14 155.164 268.409 155.164 268.409C153.799 268.358 152.95 267.007 152.028 265.981C150.271 263.989 147.74 262.896 145.304 261.863C143.814 261.152 142.239 260.633 140.618 260.321C138.982 260.005 137.288 260.31 135.865 261.177C135.127 261.693 134.493 262.409 133.71 262.896C133.34 263.169 132.897 263.324 132.438 263.342C131.979 263.361 131.525 263.241 131.135 263C131.135 263 132.987 260.8 137.209 259.627Z" fill="black"/>
</g>
<path d="M135.851 261.347C135.357 261.857 135.94 262.787 136.641 262.86C137.355 262.841 138.036 262.557 138.552 262.063C138.51 262.372 138.582 262.685 138.756 262.944C138.93 263.203 139.192 263.388 139.494 263.466C139.796 263.543 140.115 263.507 140.392 263.364C140.669 263.221 140.883 262.982 140.995 262.691C141.247 263.277 141.692 263.759 142.257 264.056C142.84 264.292 143.681 263.93 143.666 263.318C143.959 263.788 144.379 264.167 144.877 264.41C145.002 264.467 145.137 264.497 145.274 264.5C145.411 264.502 145.548 264.477 145.675 264.425C145.802 264.373 145.917 264.296 146.013 264.198C146.109 264.101 146.185 263.984 146.235 263.857C146.324 264.1 146.47 264.319 146.66 264.496C146.85 264.673 147.079 264.802 147.328 264.874C147.578 264.946 147.84 264.958 148.095 264.91C148.35 264.861 148.59 264.753 148.796 264.595C148.983 265.027 149.3 265.391 149.703 265.635C150.131 265.827 150.759 265.635 150.81 265.156C150.862 264.676 150.552 264.514 150.279 264.285C146.839 261.476 142.505 259.996 138.065 260.115C137.557 260.078 137.047 260.147 136.567 260.318C136.087 260.488 135.647 260.755 135.275 261.104" fill="white"/>
<path d="M180.995 287.414C180.851 287.36 180.694 287.35 180.544 287.384C180.394 287.417 180.257 287.494 180.149 287.604C180.042 287.714 179.968 287.852 179.938 288.003C179.907 288.154 179.921 288.31 179.977 288.453C180.033 288.596 180.13 288.72 180.255 288.809C180.38 288.899 180.528 288.95 180.682 288.957C180.836 288.965 180.988 288.927 181.121 288.85C181.254 288.772 181.361 288.658 181.43 288.521C181.33 288.876 181.317 289.251 181.393 289.613C181.435 289.789 181.527 289.949 181.658 290.073C181.789 290.198 181.954 290.281 182.131 290.314C182.222 290.32 182.313 290.305 182.396 290.271C182.48 290.236 182.555 290.184 182.616 290.116C182.676 290.048 182.72 289.968 182.745 289.881C182.77 289.794 182.775 289.702 182.759 289.613C182.754 289.719 182.771 289.826 182.808 289.926C182.845 290.026 182.901 290.118 182.973 290.197C183.045 290.275 183.132 290.339 183.229 290.383C183.326 290.428 183.431 290.453 183.537 290.458C183.753 290.467 183.963 290.39 184.121 290.244C184.2 290.171 184.263 290.084 184.308 289.987C184.353 289.891 184.378 289.786 184.382 289.679C184.485 290.161 184.767 290.587 185.172 290.867C185.607 291.089 186.294 290.749 186.168 290.277C186.119 290.489 186.147 290.712 186.248 290.905C186.348 291.099 186.514 291.25 186.716 291.332C186.918 291.413 187.142 291.421 187.349 291.352C187.556 291.283 187.731 291.143 187.844 290.956C188.047 291.38 188.384 291.725 188.803 291.938C189.238 292.1 189.858 291.812 189.821 291.347C190.035 291.731 190.301 292.152 190.729 292.247C191.157 292.343 191.659 291.805 191.364 291.509C191.697 291.834 192.117 292.054 192.573 292.143C193.029 292.232 193.502 292.186 193.932 292.011C194.168 292.218 194.434 292.388 194.722 292.513C194.793 292.543 194.87 292.559 194.948 292.559C195.026 292.559 195.103 292.544 195.175 292.515C195.247 292.486 195.312 292.442 195.368 292.387C195.423 292.333 195.467 292.268 195.497 292.196C195.527 292.124 195.542 292.047 195.543 291.969C195.543 291.892 195.528 291.815 195.498 291.743C195.469 291.671 195.426 291.605 195.371 291.55C195.316 291.495 195.251 291.451 195.179 291.421L193.703 290.735" fill="white"/>
<path d="M191.143 272.174C189.574 271.254 187.847 270.635 186.05 270.351C184.242 270.182 182.235 270.831 181.305 272.388C180.852 273.309 180.601 274.315 180.567 275.34C180.287 277.83 180.009 280.312 179.733 282.787C179.495 283.953 179.577 285.162 179.969 286.285C180.707 287.945 182.641 288.669 184.397 289.2C186.774 289.933 189.17 290.6 191.585 291.2C192.663 291.473 193.858 291.717 194.847 291.2C196.102 290.558 196.515 288.986 196.781 287.599C197.239 285.276 197.674 282.949 198.087 280.617C198.345 279.141 198.596 277.547 198.021 276.145C197.342 274.477 195.644 273.451 193.947 272.831C192.25 272.211 190.442 271.887 188.862 271.008" fill="#455A64"/>
<path d="M199.385 271.178L199.333 271.126C198.64 270.508 197.877 269.973 197.06 269.532C192.27 267.008 186.366 266.012 182.366 267.097C179.54 267.835 176.101 270.927 177.2 273.783C177.281 274.004 177.416 274.202 177.591 274.359C177.982 274.6 178.436 274.719 178.895 274.701C179.354 274.683 179.797 274.527 180.167 274.255C180.949 273.768 181.562 273.052 182.322 272.536C183.745 271.669 185.439 271.364 187.075 271.68C188.696 271.992 190.271 272.51 191.761 273.222C194.204 274.255 196.728 275.347 198.484 277.34C199.385 278.366 200.255 279.716 201.621 279.768C202.145 279.748 202.65 279.563 203.063 279.238C203.475 278.913 203.774 278.466 203.916 277.96C204.056 277.525 203.702 276.735 203.23 275.901C202.211 274.13 200.912 272.535 199.385 271.178Z" fill="#FF725E"/>
<path d="M198.375 278.853C198.191 279.025 197.985 279.171 197.762 279.288C197.184 279.654 196.585 279.987 195.969 280.285C193.931 281.28 191.773 282.007 189.548 282.447C187.323 282.884 185.05 283.028 182.788 282.875C182.102 282.836 181.42 282.755 180.744 282.632C180.491 282.613 180.242 282.556 180.006 282.462C180.006 282.395 181.076 282.55 182.795 282.602C187.283 282.759 191.747 281.882 195.843 280.041C197.423 279.34 198.345 278.794 198.375 278.853Z" fill="#263238"/>
<path d="M197.275 285.643C197.078 285.77 196.864 285.869 196.64 285.938C196.053 286.168 195.454 286.367 194.847 286.536C192.832 287.099 190.754 287.408 188.662 287.458C186.571 287.509 184.482 287.303 182.441 286.846C181.659 286.661 181.039 286.484 180.618 286.336C180.391 286.278 180.172 286.188 179.969 286.071C179.969 286.012 180.936 286.285 182.493 286.573C184.524 286.952 186.589 287.121 188.655 287.074C190.717 287.021 192.768 286.752 194.773 286.27C196.308 285.908 197.253 285.606 197.275 285.643Z" fill="#263238"/>
<path d="M194.411 274.203C193.898 274.681 193.322 275.086 192.699 275.406C191.231 276.246 189.667 276.905 188.042 277.369C186.414 277.831 184.736 278.091 183.046 278.144C182.348 278.202 181.645 278.165 180.957 278.034C181.645 277.94 182.337 277.889 183.031 277.879C184.691 277.744 186.335 277.45 187.939 277C189.537 276.54 191.087 275.924 192.566 275.163C193.702 274.58 194.381 274.152 194.411 274.203Z" fill="#263238"/>
<path d="M182.744 272.144C182.744 272.196 182.434 272.277 181.932 272.21C181.265 272.117 180.642 271.824 180.145 271.369C179.648 270.915 179.301 270.32 179.149 269.664C179.046 269.17 179.098 268.853 179.149 268.853C179.322 269.713 179.764 270.496 180.411 271.088C181.059 271.68 181.879 272.05 182.751 272.144H182.744Z" fill="white"/>
<path d="M185.43 266.713C185.467 266.758 185.267 266.979 185.046 267.385C184.765 267.92 184.589 268.503 184.529 269.104C184.486 269.719 184.486 270.335 184.529 270.949C184.529 271.429 184.529 271.732 184.529 271.739C184.529 271.746 184.382 271.459 184.293 271.001C184.166 270.37 184.131 269.723 184.19 269.082C184.249 268.426 184.481 267.797 184.861 267.259C185.12 266.831 185.4 266.676 185.43 266.713Z" fill="white"/>
<path d="M191.939 267.702C191.32 268.312 190.743 268.963 190.212 269.65C189.784 270.408 189.414 271.198 189.105 272.012C189.112 271.097 189.383 270.203 189.886 269.438C190.389 268.674 191.102 268.071 191.939 267.702Z" fill="white"/>
<path d="M197.783 270.204C197.434 271.116 196.905 271.948 196.228 272.652C195.551 273.355 194.74 273.916 193.842 274.3C193.783 274.204 194.868 273.518 195.953 272.388C197.038 271.259 197.702 270.152 197.783 270.204Z" fill="white"/>
<path d="M202.212 274.713C202.257 274.713 202.176 275.008 201.91 275.384C201.549 275.866 201.081 276.256 200.543 276.525C200.005 276.794 199.412 276.934 198.81 276.934C198.345 276.934 198.072 276.831 198.072 276.779C198.866 276.741 199.643 276.537 200.353 276.181C201.063 275.825 201.692 275.325 202.198 274.713H202.212Z" fill="white"/>
<g opacity="0.3">
<path d="M183.703 270.985C185.319 270.528 190.249 270.904 195.341 273.701C200.433 276.498 201.658 279.768 201.658 279.768C200.293 279.716 199.444 278.365 198.522 277.34C196.765 275.347 194.241 274.255 191.799 273.222C190.308 272.51 188.734 271.992 187.112 271.679C185.477 271.363 183.782 271.668 182.359 272.535C181.621 273.052 180.987 273.768 180.205 274.255C179.834 274.527 179.392 274.682 178.933 274.701C178.474 274.719 178.02 274.6 177.629 274.358C177.629 274.358 179.481 272.159 183.703 270.985Z" fill="black"/>
</g>
<path d="M182.345 272.705C181.851 273.214 182.434 274.181 183.135 274.218C183.85 274.193 184.532 273.91 185.054 273.421C185.001 273.733 185.067 274.053 185.239 274.318C185.412 274.583 185.677 274.774 185.983 274.853C186.289 274.932 186.614 274.893 186.893 274.744C187.172 274.595 187.385 274.346 187.489 274.048C187.741 274.634 188.186 275.116 188.751 275.413C189.334 275.65 190.175 275.288 190.161 274.675C190.454 275.146 190.873 275.524 191.371 275.768C191.497 275.823 191.632 275.853 191.77 275.855C191.907 275.857 192.043 275.832 192.171 275.78C192.298 275.728 192.414 275.652 192.511 275.554C192.608 275.457 192.685 275.341 192.736 275.214C192.825 275.457 192.97 275.676 193.159 275.853C193.348 276.03 193.577 276.16 193.826 276.232C194.074 276.304 194.337 276.316 194.591 276.267C194.845 276.219 195.085 276.111 195.29 275.952C195.478 276.387 195.798 276.751 196.205 276.993C196.625 277.185 197.253 276.993 197.304 276.513C197.304 276.159 197.046 275.871 196.773 275.642C193.333 272.833 188.999 271.353 184.559 271.472C184.051 271.436 183.541 271.505 183.061 271.675C182.581 271.845 182.141 272.113 181.77 272.461" fill="white"/>
<path d="M167.865 279.701C167.453 279.504 167 279.408 166.544 279.421C166.018 279.472 165.488 279.442 164.972 279.332C164.644 279.241 164.356 279.044 164.152 278.771C163.943 278.487 163.799 278.159 163.732 277.812C163.599 277.126 163.599 276.513 163.459 275.967C163.364 275.491 163.159 275.044 162.861 274.661C162.554 274.332 162.175 274.079 161.754 273.923C161.754 273.878 162.396 273.819 163.06 274.498C163.421 274.899 163.675 275.383 163.798 275.908C163.961 276.476 163.975 277.14 164.101 277.753C164.131 278.034 164.237 278.301 164.409 278.525C164.581 278.749 164.812 278.921 165.075 279.022C165.559 279.133 166.054 279.185 166.551 279.177C166.912 279.183 167.267 279.276 167.584 279.45C167.806 279.576 167.879 279.701 167.865 279.701Z" fill="white"/>
<path d="M169.74 278.137C169.74 278.182 169.18 278.197 168.626 277.584C168.318 277.232 168.102 276.808 167.999 276.352C167.886 275.814 167.817 275.269 167.792 274.721C167.769 274.198 167.672 273.681 167.504 273.185C167.348 272.794 167.126 272.432 166.848 272.115C166.36 271.577 165.925 271.377 165.955 271.318C166.374 271.393 166.756 271.606 167.039 271.924C167.376 272.243 167.645 272.627 167.829 273.053C168.034 273.576 168.151 274.129 168.176 274.691C168.197 275.221 168.254 275.748 168.346 276.27C168.421 276.683 168.587 277.074 168.833 277.414C169.087 277.711 169.395 277.956 169.74 278.137Z" fill="white"/>
<g opacity="0.3">
<path d="M162.3 276.749C162.256 276.749 162.086 276.395 162.064 275.746C162.042 274.895 162.297 274.059 162.79 273.366C163.284 272.672 163.99 272.158 164.802 271.901C165.121 271.758 165.478 271.72 165.82 271.79C165.82 271.856 165.444 271.916 164.898 272.152C164.188 272.456 163.576 272.949 163.128 273.578C162.681 274.207 162.414 274.946 162.359 275.716C162.359 276.061 162.339 276.406 162.3 276.749Z" fill="white"/>
</g>
<g opacity="0.3">
<path d="M141.623 256.706C141.623 256.765 140.989 256.595 139.992 256.506C137.361 256.264 134.731 256.971 132.575 258.499C131.756 259.082 131.306 259.532 131.262 259.488C131.567 259.018 131.957 258.61 132.413 258.285C133.473 257.438 134.697 256.82 136.007 256.469C137.316 256.121 138.681 256.04 140.022 256.233C140.58 256.289 141.124 256.449 141.623 256.706Z" fill="white"/>
</g>
<g opacity="0.3">
<path d="M185.607 268.033C182.76 268.121 180.043 269.253 177.977 271.214C178.171 270.835 178.443 270.501 178.774 270.233C180.291 268.813 182.269 267.987 184.345 267.908C184.77 267.858 185.201 267.901 185.607 268.033Z" fill="white"/>
</g>
<path d="M125.83 271.93L107.432 267.333L108.509 261.96L127.284 266.676L125.83 271.93Z" fill="#455A64"/>
<path d="M127.18 266.735C127.18 266.794 126.073 266.684 124.294 266.566C122.515 266.447 120.058 266.359 117.342 266.447C114.626 266.536 112.176 266.802 110.412 267.038C109.465 267.209 108.509 267.332 107.549 267.407C107.785 267.304 108.033 267.232 108.287 267.193C108.774 267.067 109.482 266.927 110.368 266.772C112.666 266.37 114.989 266.124 117.32 266.034C119.652 265.957 121.987 266.033 124.309 266.263C125.202 266.359 125.918 266.455 126.412 266.536C126.675 266.573 126.932 266.64 127.18 266.735Z" fill="#263238"/>
<path d="M126.515 269.717C125.801 270.221 124.991 270.573 124.135 270.749C123.279 270.926 122.396 270.923 121.541 270.743C121.541 270.632 122.692 270.662 124.058 270.374C125.423 270.086 126.463 269.621 126.515 269.717Z" fill="#263238"/>
<path d="M111.438 262.823C110.915 263.031 110.374 263.194 109.822 263.31C109.312 263.544 108.78 263.729 108.235 263.864C108.169 263.79 108.774 263.244 109.711 262.949C110.254 262.703 110.866 262.659 111.438 262.823Z" fill="#263238"/>
<path d="M115.277 255.2C114.096 257.562 112.908 259.968 112.48 262.58C112.052 265.193 112.48 268.063 114.251 270.034C116.022 272.004 119.269 272.691 121.373 271.097C122.76 270.049 123.402 268.292 123.793 266.602C124.184 264.912 124.406 263.141 125.218 261.606C125.742 260.61 126.531 259.665 126.517 258.543C126.451 257.977 126.254 257.434 125.943 256.956C125.632 256.479 125.214 256.08 124.723 255.791C123.322 254.83 121.677 254.286 119.979 254.221C118.282 254.155 116.6 254.572 115.129 255.422" fill="#FF725E"/>
<path d="M123.082 269.082C122.848 268.52 122.465 268.033 121.975 267.672C121.43 267.298 120.811 267.047 120.16 266.934C119.345 266.852 118.524 266.852 117.709 266.934C116.865 267.008 116.016 266.981 115.178 266.853C114.485 266.716 113.835 266.415 113.281 265.975C112.905 265.676 112.621 265.277 112.462 264.824C112.392 264.664 112.367 264.488 112.388 264.314C112.598 264.896 112.966 265.407 113.451 265.79C113.986 266.173 114.603 266.426 115.252 266.528C116.062 266.636 116.881 266.653 117.695 266.58C118.536 266.505 119.383 266.527 120.219 266.647C120.917 266.766 121.576 267.055 122.137 267.488C122.519 267.774 122.815 268.16 122.994 268.602C123.062 268.752 123.092 268.917 123.082 269.082Z" fill="white"/>
<path d="M123.888 264.809C123.686 264.236 123.352 263.717 122.914 263.296C122.419 262.869 121.845 262.546 121.224 262.344C120.439 262.117 119.637 261.959 118.825 261.872C117.986 261.788 117.16 261.599 116.368 261.311C115.711 261.055 115.125 260.648 114.655 260.123C114.336 259.771 114.117 259.341 114.021 258.875C113.975 258.709 113.975 258.533 114.021 258.366C114.166 258.956 114.458 259.499 114.869 259.946C115.333 260.405 115.889 260.76 116.5 260.986C117.275 261.237 118.074 261.408 118.884 261.495C119.719 261.58 120.543 261.753 121.342 262.012C122.006 262.24 122.611 262.613 123.113 263.104C123.454 263.436 123.707 263.846 123.851 264.3C123.908 264.463 123.921 264.639 123.888 264.809Z" fill="white"/>
<path d="M125.461 260.653C125.461 260.653 125.461 260.498 125.461 260.247C125.39 259.893 125.197 259.574 124.915 259.347C124.488 259.014 123.977 258.807 123.439 258.749C122.737 258.667 122.046 258.506 121.38 258.27C120.16 257.811 119.093 257.018 118.302 255.982C117.95 255.576 117.697 255.093 117.564 254.572C117.623 254.572 117.897 255.089 118.516 255.812C119.332 256.745 120.363 257.465 121.52 257.908C122.166 258.139 122.834 258.304 123.513 258.402C124.108 258.484 124.665 258.741 125.114 259.14C125.419 259.422 125.602 259.811 125.623 260.225C125.601 260.513 125.505 260.661 125.461 260.653Z" fill="white"/>
<g opacity="0.3">
<path d="M115.866 269.215C115.866 269.215 115.637 269.215 115.29 269.031C114.801 268.763 114.391 268.371 114.102 267.894C113.68 267.182 113.444 266.375 113.416 265.547C113.389 264.559 113.458 263.57 113.622 262.595C113.885 260.823 114.36 259.088 115.039 257.429C115.287 256.732 115.624 256.069 116.043 255.459C116.095 255.459 115.748 256.256 115.305 257.533C114.712 259.192 114.28 260.905 114.014 262.647C113.855 263.598 113.778 264.561 113.785 265.525C113.792 266.298 113.987 267.058 114.353 267.739C114.703 268.368 115.228 268.881 115.866 269.215Z" fill="white"/>
</g>
<g opacity="0.3">
<path d="M119.216 270.713C119.216 270.809 118.656 271.008 117.932 270.831C117.209 270.654 116.766 270.226 116.84 270.145C116.914 270.064 117.386 270.314 118.021 270.462C118.655 270.61 119.202 270.602 119.216 270.713Z" fill="white"/>
</g>
<path d="M260.338 220.565L284.271 230.993L300.441 236.942C300.441 236.942 313.09 240.853 316.374 245.244C323.82 255.207 334.086 267.908 328.263 276.24C322.44 284.572 316.374 284.764 309.193 283.192C302.013 281.62 290.515 276.639 285.349 271.251C280.183 265.864 242.404 237.591 242.404 237.591L260.338 220.565Z" fill="#FFD5BE"/>
<path d="M246.197 231.127L248.817 241.872C249.088 242.975 248.934 244.139 248.388 245.133C247.841 246.128 246.941 246.882 245.865 247.245L196.67 263.71C196.206 263.87 195.702 263.871 195.237 263.713C194.772 263.556 194.373 263.248 194.102 262.839L193.069 261.363L189.667 262.3C188.412 261.85 187.364 259.99 186.655 258.116L177.283 260.47L176.678 259.038L185.652 255.267C185.652 255.267 184.596 250.588 185.349 249.407L188.611 248.249C188.611 248.249 188.53 245.71 189.305 244.839L201.917 240.278L238.625 227.046C239.389 226.771 240.202 226.661 241.011 226.721C241.82 226.782 242.608 227.012 243.322 227.397C244.036 227.782 244.662 228.313 245.157 228.956C245.652 229.598 246.007 230.338 246.197 231.127Z" fill="#FF725E"/>
<path d="M193.061 261.326L192.98 261.207L192.773 260.853C192.589 260.551 192.338 260.115 192.035 259.532C190.499 256.576 189.422 253.403 188.84 250.123C188.729 249.495 188.655 248.979 188.618 248.647L188.574 248.241C188.574 248.145 188.574 248.101 188.574 248.101C188.574 248.101 188.574 248.145 188.611 248.241C188.648 248.337 188.663 248.499 188.685 248.639C188.744 248.994 188.833 249.503 188.958 250.115C189.276 251.741 189.703 253.344 190.235 254.912C190.773 256.478 191.409 258.009 192.139 259.495C192.419 260.064 192.648 260.529 192.818 260.838L193.002 261.207C193.046 261.252 193.069 261.318 193.061 261.326Z" fill="#263238"/>
<g opacity="0.3">
<path d="M188.735 247.968L188.646 247.85C188.974 252.634 190.496 257.26 193.074 261.303C191.618 256.875 190.172 252.43 188.735 247.968Z" fill="black"/>
</g>
<path d="M188.928 250.182C188.928 250.233 188.042 250.182 186.987 250.462C186.355 250.639 185.735 250.851 185.127 251.097C185.275 250.969 185.442 250.864 185.621 250.787C186.046 250.58 186.491 250.419 186.95 250.307C187.407 250.199 187.875 250.142 188.345 250.137C188.54 250.121 188.737 250.136 188.928 250.182Z" fill="#263238"/>
<path d="M189.23 252.293C189.23 252.344 188.345 252.293 187.289 252.573C186.658 252.75 186.037 252.962 185.43 253.208C185.58 253.079 185.749 252.974 185.932 252.898C186.353 252.689 186.796 252.529 187.253 252.418C187.712 252.31 188.183 252.253 188.655 252.248C188.848 252.231 189.042 252.246 189.23 252.293Z" fill="#263238"/>
<path d="M189.792 254.256C189.101 254.321 188.415 254.437 187.74 254.602C186.626 254.898 185.799 255.34 185.777 255.304C185.932 255.166 186.11 255.056 186.301 254.979C186.751 254.757 187.22 254.579 187.704 254.447C188.377 254.23 189.09 254.165 189.792 254.256Z" fill="#263238"/>
<path d="M190.403 256.086C190.201 256.125 189.996 256.15 189.791 256.16C189.291 256.229 188.797 256.337 188.315 256.484C187.208 256.831 186.374 257.289 186.352 257.222C186.507 257.084 186.684 256.972 186.876 256.89C187.323 256.658 187.789 256.465 188.27 256.315C188.953 256.07 189.684 255.991 190.403 256.086Z" fill="#263238"/>
<path d="M191.194 257.997C191.03 258.139 190.846 258.256 190.648 258.344C190.176 258.572 189.681 258.747 189.172 258.868C188.662 258.987 188.139 259.044 187.615 259.038C187.398 259.051 187.181 259.026 186.973 258.964C187.699 258.94 188.422 258.859 189.135 258.72C189.838 258.531 190.527 258.289 191.194 257.997Z" fill="#263238"/>
<path d="M192.028 259.694C191.906 259.862 191.756 260.007 191.585 260.122C191.185 260.435 190.74 260.684 190.264 260.86C189.789 261.033 189.292 261.135 188.788 261.163C188.58 261.189 188.37 261.174 188.168 261.119C188.866 261.068 189.555 260.932 190.22 260.713C190.859 260.444 191.466 260.102 192.028 259.694Z" fill="#263238"/>
<g opacity="0.3">
<path d="M185.651 255.281C185.495 255.49 185.395 255.735 185.359 255.993C185.323 256.251 185.352 256.514 185.444 256.757C185.535 257.053 185.69 257.326 185.898 257.555C186.106 257.785 186.362 257.966 186.647 258.086C186.238 257.18 185.904 256.242 185.651 255.281Z" fill="black"/>
</g>
<g opacity="0.3">
<path d="M240.279 244.277C239.674 242.919 238.803 241.561 238.943 240.078C239.113 238.078 241.076 236.388 240.67 234.403C240.548 233.934 240.325 233.498 240.016 233.124C239.708 232.751 239.322 232.449 238.884 232.24C238.008 231.839 237.07 231.59 236.11 231.502C224.198 229.82 213.689 235.141 201.918 240.358C201.992 243.17 201.638 246.262 201.711 249.052C201.69 250.403 201.849 251.75 202.184 253.059C202.356 253.715 202.658 254.329 203.073 254.866C203.487 255.402 204.006 255.849 204.597 256.181C206.582 257.163 208.988 256.181 210.789 254.926C211.316 255.566 211.976 256.083 212.723 256.442C213.469 256.801 214.285 256.994 215.113 257.008C216.774 257.025 218.42 256.698 219.947 256.048C220.554 255.877 221.078 255.491 221.423 254.963C221.551 254.57 221.576 254.151 221.496 253.745C221.416 253.339 221.234 252.961 220.966 252.646C220.417 252.028 220.034 251.282 219.851 250.476C220.589 252.439 222.84 253.539 224.951 253.576C227.062 253.613 229.084 252.794 230.995 251.893C232.907 250.993 234.803 249.997 236.899 249.62C238.043 249.414 239.335 249.355 240.139 248.521C241.18 247.384 240.884 245.613 240.279 244.277Z" fill="black"/>
</g>
<path d="M215.621 223.377L204.492 233.709L201.223 241.657C201.223 241.657 201.739 251.864 203.525 252.617C205.311 253.369 205.739 253.465 206.426 252.262C207.112 251.059 207.961 243.443 207.961 243.443L210.396 253.037L220.329 258.624C220.329 258.624 222.115 256.41 219.355 252.801C218.26 251.468 217.245 250.07 216.315 248.617L214.639 241.864L219.4 234.122L217.569 240.838C217.452 241.394 217.45 241.969 217.563 242.526C217.676 243.083 217.902 243.611 218.226 244.078L225.724 254.845L234.684 256.661C234.684 256.661 235.23 254.912 233.621 252.661L238.506 253.768C238.506 253.768 242.934 250.816 239.554 248.218L236.16 245.606L234.425 240.174L235.422 233.207C235.422 233.207 234.979 234.314 238.278 233.392C238.278 233.392 245.864 237.037 249.82 237.768C253.776 238.499 258.868 232.772 258.868 232.772L260.344 220.58L219.23 221.17L215.621 223.377Z" fill="#FFD5BE"/>
<path d="M229.94 230.138C229.827 230.436 229.686 230.722 229.519 230.994C229.224 231.555 228.781 232.359 228.287 233.378C227.714 234.564 227.285 235.816 227.01 237.104C226.7 238.684 226.75 240.314 227.157 241.872C228.013 245.208 230.006 247.776 231.416 249.488C232.154 250.359 232.744 251.053 233.157 251.532C233.39 251.77 233.595 252.032 233.77 252.315C233.506 252.109 233.259 251.882 233.032 251.636C232.589 251.185 231.947 250.521 231.194 249.665C230.315 248.666 229.509 247.606 228.781 246.492C227.88 245.105 227.207 243.583 226.788 241.983C226.362 240.374 226.319 238.688 226.663 237.06C226.955 235.745 227.419 234.475 228.043 233.282C228.56 232.263 229.054 231.481 229.394 230.942C229.545 230.654 229.728 230.384 229.94 230.138Z" fill="#FFB194"/>
<path d="M261.99 229.348C261.995 229.578 261.962 229.807 261.894 230.027C261.842 230.289 261.776 230.547 261.695 230.802C261.599 231.143 261.483 231.478 261.348 231.805C261.016 232.669 260.598 233.497 260.101 234.278C259.491 235.234 258.783 236.124 257.99 236.934C257.182 237.732 256.294 238.444 255.34 239.06C254.561 239.558 253.736 239.981 252.875 240.322C252.514 240.477 252.138 240.573 251.872 240.669C251.618 240.753 251.36 240.82 251.097 240.868C250.878 240.941 250.649 240.976 250.418 240.971C250.418 240.898 251.355 240.691 252.772 240.071C253.598 239.699 254.392 239.262 255.149 238.765C256.069 238.146 256.929 237.442 257.717 236.661C258.491 235.869 259.19 235.007 259.805 234.086C260.303 233.329 260.735 232.532 261.097 231.702C261.695 230.256 261.894 229.333 261.99 229.348Z" fill="#FFB194"/>
<path d="M213.622 228.684C213.666 228.743 212.884 229.267 211.873 230.374C211.285 231.02 210.754 231.716 210.286 232.455C209.716 233.364 209.223 234.32 208.81 235.311C208.429 236.31 208.133 237.339 207.925 238.388C207.774 239.251 207.703 240.125 207.711 241.001C207.711 242.477 208.013 243.399 207.939 243.414C207.832 243.221 207.757 243.011 207.718 242.794C207.642 242.553 207.588 242.306 207.556 242.056C207.493 241.717 207.454 241.375 207.437 241.03C207.391 240.135 207.438 239.237 207.578 238.351C207.765 237.272 208.059 236.214 208.456 235.193C208.864 234.176 209.371 233.203 209.969 232.285C210.459 231.535 211.025 230.837 211.659 230.204C211.889 229.957 212.136 229.725 212.397 229.51C212.59 229.336 212.797 229.178 213.017 229.038C213.198 228.888 213.402 228.768 213.622 228.684Z" fill="#FFB194"/>
<path d="M317.691 335.768L316.325 335.209L331.6 297.834C331.66 297.687 331.776 297.571 331.922 297.509C332.069 297.448 332.233 297.447 332.38 297.507L332.633 297.61C332.779 297.67 332.896 297.786 332.958 297.932C333.019 298.079 333.02 298.243 332.96 298.39L317.685 335.765L317.691 335.768Z" fill="#FF725E"/>
<path d="M320.873 335.771L319.595 335.033L339.783 300.066C339.862 299.929 339.993 299.828 340.146 299.787C340.299 299.746 340.462 299.768 340.599 299.847L340.836 299.984C340.973 300.063 341.073 300.193 341.114 300.347C341.155 300.5 341.134 300.663 341.055 300.8L320.867 335.767L320.873 335.771Z" fill="#FF725E"/>
<path d="M335.446 329.465C335.442 331.791 334.98 334.094 334.086 336.241C333.192 338.389 331.884 340.339 330.237 341.981C326.91 345.297 322.401 347.156 317.704 347.148C313.006 347.14 308.504 345.266 305.188 341.939C301.872 338.612 300.014 334.104 300.022 329.406L335.446 329.465Z" fill="#455A64"/>
<path d="M327.672 338.558C327.569 338.558 327.982 336.617 328.322 334.233C328.661 331.849 328.809 329.886 328.92 329.894C329.044 331.361 328.969 332.838 328.698 334.285C328.554 335.749 328.208 337.187 327.672 338.558Z" fill="#E0E0E0"/>
<path d="M322.78 338.92C322.772 337.426 322.851 335.932 323.016 334.447C323.057 332.952 323.19 331.461 323.415 329.982C323.579 331.474 323.579 332.978 323.415 334.469C323.365 335.971 323.152 337.464 322.78 338.92Z" fill="#E0E0E0"/>
<path d="M316.522 330.521C316.778 332.954 316.778 335.408 316.522 337.841C316.266 335.408 316.266 332.954 316.522 330.521Z" fill="#E0E0E0"/>
<path d="M311.259 330.698C311.37 330.698 311.34 332.307 311.466 334.27C311.6 335.456 311.674 336.648 311.687 337.842C311.298 336.699 311.093 335.5 311.082 334.292C310.944 333.093 311.004 331.878 311.259 330.698Z" fill="#E0E0E0"/>
<path d="M306.271 337.472C305.803 336.337 305.523 335.133 305.445 333.908C305.237 332.687 305.237 331.439 305.445 330.218C305.556 330.218 305.6 331.849 305.829 333.834C306.057 335.819 306.412 337.443 306.271 337.472Z" fill="#E0E0E0"/>
<path d="M279.331 298.91L279.577 298.809C279.723 298.75 279.888 298.75 280.034 298.812C280.18 298.873 280.296 298.99 280.356 299.137L295.556 336.327L294.19 336.886L278.993 299.702C278.961 299.628 278.945 299.548 278.945 299.468C278.946 299.388 278.962 299.308 278.993 299.234C279.025 299.16 279.071 299.093 279.129 299.038C279.187 298.982 279.256 298.939 279.331 298.91Z" fill="#263238"/>
<path d="M271.185 301.254L271.415 301.122C271.552 301.042 271.715 301.021 271.869 301.062C272.022 301.103 272.152 301.203 272.232 301.34L292.32 336.134L291.042 336.872L270.953 302.078C270.913 302.009 270.888 301.933 270.878 301.854C270.868 301.775 270.874 301.694 270.895 301.618C270.917 301.541 270.954 301.469 271.003 301.407C271.053 301.344 271.115 301.293 271.185 301.254Z" fill="#263238"/>
<path d="M256.367 315.045C256.547 323.44 260.009 331.43 266.009 337.304C272.01 343.178 280.073 346.467 288.47 346.467C296.867 346.467 304.93 343.178 310.931 337.304C316.932 331.43 320.393 323.44 320.573 315.045H256.367Z" fill="#FF725E"/>
<path d="M318.44 326.529C318.043 326.831 317.618 327.096 317.171 327.318C315.886 327.967 314.487 328.359 313.053 328.47C310.764 328.661 308.475 328.112 306.521 326.905C305.894 326.546 305.347 326.063 304.911 325.485C304.476 324.908 304.163 324.249 303.99 323.547C303.851 322.757 303.965 321.944 304.315 321.222C304.497 320.836 304.767 320.496 305.102 320.231C305.438 319.966 305.83 319.783 306.248 319.695C306.688 319.62 307.138 319.636 307.571 319.743C308.004 319.849 308.41 320.044 308.765 320.315C309.493 320.893 309.996 321.707 310.189 322.617C310.382 323.569 310.342 324.553 310.072 325.486C309.802 326.419 309.311 327.273 308.639 327.975C307.239 329.517 305.306 330.472 303.23 330.647C301.05 330.784 298.873 330.341 296.92 329.363C295.903 328.884 294.934 328.308 294.027 327.643C293.035 326.986 292.29 326.018 291.909 324.89C291.743 324.299 291.743 323.673 291.909 323.082C292.068 322.465 292.462 321.935 293.009 321.606C293.288 321.446 293.599 321.349 293.92 321.319C294.241 321.29 294.564 321.33 294.868 321.436C295.471 321.641 296.001 322.015 296.396 322.514C296.793 323.02 297.025 323.635 297.06 324.278C297.097 324.91 297.002 325.544 296.78 326.137C296.318 327.313 295.576 328.357 294.617 329.178C292.685 330.885 290.192 331.821 287.614 331.805C286.325 331.81 285.048 331.559 283.857 331.067C282.657 330.608 281.597 329.845 280.78 328.853C280.383 328.346 280.094 327.764 279.931 327.141C279.78 326.515 279.78 325.863 279.931 325.237C280.081 324.608 280.415 324.037 280.891 323.599C281.371 323.153 281.993 322.892 282.647 322.861C283.274 322.859 283.891 323.014 284.443 323.311C284.995 323.609 285.463 324.04 285.806 324.565C286.116 325.093 286.303 325.683 286.353 326.293C286.402 326.902 286.314 327.515 286.093 328.086C285.695 329.202 284.954 330.163 283.975 330.831C283.029 331.47 281.957 331.9 280.832 332.093C278.754 332.463 276.622 332.4 274.569 331.908C272.517 331.415 270.589 330.503 268.905 329.23C267.37 328.027 266.079 326.388 265.857 324.499C265.803 324.035 265.831 323.566 265.939 323.112C266.059 322.668 266.264 322.252 266.544 321.887C267.084 321.161 267.872 320.66 268.758 320.477C269.179 320.391 269.616 320.418 270.024 320.557C270.431 320.696 270.794 320.941 271.075 321.267C271.589 321.887 271.852 322.676 271.813 323.481C271.762 324.233 271.507 324.958 271.075 325.577C270.686 326.142 270.208 326.641 269.658 327.053C268.68 327.825 267.535 328.361 266.315 328.617C265.296 328.834 264.248 328.874 263.215 328.735C261.781 328.557 260.416 328.013 259.252 327.156L258.751 326.75C258.61 326.625 258.507 326.506 258.418 326.418C258.33 326.329 258.16 326.137 258.16 326.137C258.16 326.137 258.263 326.219 258.448 326.388L258.787 326.706L259.297 327.097C260.465 327.908 261.817 328.416 263.23 328.573C264.247 328.697 265.278 328.647 266.278 328.425C267.466 328.163 268.577 327.63 269.525 326.868C270.087 326.468 270.558 325.954 270.909 325.361C271.26 324.767 271.482 324.106 271.562 323.422C271.598 322.677 271.356 321.946 270.883 321.37C270.627 321.083 270.3 320.869 269.935 320.747C269.57 320.626 269.179 320.601 268.802 320.676C267.986 320.859 267.267 321.337 266.784 322.018C266.3 322.7 266.085 323.536 266.182 324.366C266.539 326.197 267.599 327.816 269.134 328.875C270.784 330.112 272.67 330.997 274.676 331.473C276.682 331.949 278.765 332.007 280.795 331.643C281.869 331.453 282.892 331.041 283.798 330.433C284.713 329.805 285.406 328.903 285.776 327.857C285.976 327.341 286.057 326.786 286.014 326.234C285.971 325.682 285.804 325.147 285.525 324.669C285.218 324.197 284.798 323.81 284.303 323.542C283.808 323.274 283.254 323.133 282.691 323.134C282.128 323.151 281.589 323.368 281.171 323.746C280.75 324.143 280.457 324.657 280.33 325.222C280.19 325.791 280.185 326.384 280.313 326.955C280.441 327.526 280.699 328.059 281.068 328.514C281.852 329.458 282.87 330.18 284.02 330.61C285.164 331.083 286.391 331.321 287.628 331.311C290.112 331.324 292.515 330.426 294.381 328.787C295.29 328.004 295.994 327.011 296.433 325.894C296.666 325.37 296.759 324.795 296.704 324.225C296.648 323.654 296.445 323.108 296.115 322.639C295.807 322.18 295.345 321.845 294.813 321.693C294.281 321.542 293.712 321.584 293.208 321.813C292.765 322.13 292.435 322.58 292.263 323.097C292.092 323.614 292.09 324.172 292.256 324.691C292.619 325.735 293.313 326.632 294.234 327.244C295.121 327.895 296.067 328.461 297.06 328.934C298.958 329.888 301.073 330.323 303.193 330.196C305.187 330.036 307.046 329.126 308.396 327.65C309.033 326.986 309.5 326.177 309.757 325.293C310.014 324.409 310.053 323.476 309.872 322.573C309.698 321.728 309.233 320.971 308.558 320.433C308.237 320.183 307.869 320.003 307.475 319.903C307.081 319.802 306.671 319.784 306.27 319.85C305.892 319.928 305.536 320.093 305.233 320.333C304.929 320.572 304.685 320.88 304.521 321.23C304.185 321.897 304.073 322.656 304.204 323.392C304.368 324.063 304.665 324.693 305.077 325.247C305.489 325.801 306.007 326.267 306.602 326.617C308.517 327.809 310.758 328.367 313.008 328.211C314.429 328.115 315.818 327.752 317.104 327.141C317.54 326.92 317.842 326.743 318.078 326.61C318.315 326.477 318.44 326.529 318.44 326.529Z" fill="white"/>
</svg>
